<?xml version="1.0" encoding="utf-8" standalone="no"?>
<!DOCTYPE svg PUBLIC "-//W3C//DTD SVG 1.1//EN"
  "http://www.w3.org/Graphics/SVG/1.1/DTD/svg11.dtd">
<!-- Created with matplotlib (https://matplotlib.org/) -->
<svg height="345.6pt" version="1.1" viewBox="0 0 460.8 345.6" width="460.8pt" xmlns="http://www.w3.org/2000/svg" xmlns:xlink="http://www.w3.org/1999/xlink">
 <metadata>
  <rdf:RDF xmlns:cc="http://creativecommons.org/ns#" xmlns:dc="http://purl.org/dc/elements/1.1/" xmlns:rdf="http://www.w3.org/1999/02/22-rdf-syntax-ns#">
   <cc:Work>
    <dc:type rdf:resource="http://purl.org/dc/dcmitype/StillImage"/>
    <dc:date>2021-02-04T14:30:04.203132</dc:date>
    <dc:format>image/svg+xml</dc:format>
    <dc:creator>
     <cc:Agent>
      <dc:title>Matplotlib v3.3.4, https://matplotlib.org/</dc:title>
     </cc:Agent>
    </dc:creator>
   </cc:Work>
  </rdf:RDF>
 </metadata>
 <defs>
  <style type="text/css">*{stroke-linecap:butt;stroke-linejoin:round;}</style>
 </defs>
 <g id="figure_1">
  <g id="patch_1">
   <path d="M 0 345.6 
L 460.8 345.6 
L 460.8 0 
L 0 0 
z
" style="fill:#ffffff;"/>
  </g>
  <g id="axes_1">
   <g id="patch_2">
    <path d="M 47.63 91.826667 
L 450 91.826667 
L 450 26.88 
L 47.63 26.88 
z
" style="fill:#ffffff;"/>
   </g>
   <g id="matplotlib.axis_1">
    <g id="xtick_1">
     <g id="line2d_1">
      <path clip-path="url(#pf783bd5d2f)" d="M 65.919545 91.826667 
L 65.919545 26.88 
" style="fill:none;stroke:#b0b0b0;stroke-linecap:square;stroke-width:0.8;"/>
     </g>
     <g id="line2d_2">
      <defs>
       <path d="M 0 0 
L 0 3.5 
" id="mcacffd8f90" style="stroke:#000000;stroke-width:0.8;"/>
      </defs>
      <g>
       <use style="stroke:#000000;stroke-width:0.8;" x="65.919545" xlink:href="#mcacffd8f90" y="91.826667"/>
      </g>
     </g>
    </g>
    <g id="xtick_2">
     <g id="line2d_3">
      <path clip-path="url(#pf783bd5d2f)" d="M 139.816699 91.826667 
L 139.816699 26.88 
" style="fill:none;stroke:#b0b0b0;stroke-linecap:square;stroke-width:0.8;"/>
     </g>
     <g id="line2d_4">
      <g>
       <use style="stroke:#000000;stroke-width:0.8;" x="139.816699" xlink:href="#mcacffd8f90" y="91.826667"/>
      </g>
     </g>
    </g>
    <g id="xtick_3">
     <g id="line2d_5">
      <path clip-path="url(#pf783bd5d2f)" d="M 213.713852 91.826667 
L 213.713852 26.88 
" style="fill:none;stroke:#b0b0b0;stroke-linecap:square;stroke-width:0.8;"/>
     </g>
     <g id="line2d_6">
      <g>
       <use style="stroke:#000000;stroke-width:0.8;" x="213.713852" xlink:href="#mcacffd8f90" y="91.826667"/>
      </g>
     </g>
    </g>
    <g id="xtick_4">
     <g id="line2d_7">
      <path clip-path="url(#pf783bd5d2f)" d="M 287.611006 91.826667 
L 287.611006 26.88 
" style="fill:none;stroke:#b0b0b0;stroke-linecap:square;stroke-width:0.8;"/>
     </g>
     <g id="line2d_8">
      <g>
       <use style="stroke:#000000;stroke-width:0.8;" x="287.611006" xlink:href="#mcacffd8f90" y="91.826667"/>
      </g>
     </g>
    </g>
    <g id="xtick_5">
     <g id="line2d_9">
      <path clip-path="url(#pf783bd5d2f)" d="M 361.508159 91.826667 
L 361.508159 26.88 
" style="fill:none;stroke:#b0b0b0;stroke-linecap:square;stroke-width:0.8;"/>
     </g>
     <g id="line2d_10">
      <g>
       <use style="stroke:#000000;stroke-width:0.8;" x="361.508159" xlink:href="#mcacffd8f90" y="91.826667"/>
      </g>
     </g>
    </g>
    <g id="xtick_6">
     <g id="line2d_11">
      <path clip-path="url(#pf783bd5d2f)" d="M 435.405312 91.826667 
L 435.405312 26.88 
" style="fill:none;stroke:#b0b0b0;stroke-linecap:square;stroke-width:0.8;"/>
     </g>
     <g id="line2d_12">
      <g>
       <use style="stroke:#000000;stroke-width:0.8;" x="435.405312" xlink:href="#mcacffd8f90" y="91.826667"/>
      </g>
     </g>
    </g>
    <g id="text_1">
     <!-- Sample -->
     <g transform="translate(230.066563 103.425104)scale(0.1 -0.1)">
      <defs>
       <path d="M 53.515625 70.515625 
L 53.515625 60.890625 
Q 47.90625 63.578125 42.921875 64.890625 
Q 37.9375 66.21875 33.296875 66.21875 
Q 25.25 66.21875 20.875 63.09375 
Q 16.5 59.96875 16.5 54.203125 
Q 16.5 49.359375 19.40625 46.890625 
Q 22.3125 44.4375 30.421875 42.921875 
L 36.375 41.703125 
Q 47.40625 39.59375 52.65625 34.296875 
Q 57.90625 29 57.90625 20.125 
Q 57.90625 9.515625 50.796875 4.046875 
Q 43.703125 -1.421875 29.984375 -1.421875 
Q 24.8125 -1.421875 18.96875 -0.25 
Q 13.140625 0.921875 6.890625 3.21875 
L 6.890625 13.375 
Q 12.890625 10.015625 18.65625 8.296875 
Q 24.421875 6.59375 29.984375 6.59375 
Q 38.421875 6.59375 43.015625 9.90625 
Q 47.609375 13.234375 47.609375 19.390625 
Q 47.609375 24.75 44.3125 27.78125 
Q 41.015625 30.8125 33.5 32.328125 
L 27.484375 33.5 
Q 16.453125 35.6875 11.515625 40.375 
Q 6.59375 45.0625 6.59375 53.421875 
Q 6.59375 63.09375 13.40625 68.65625 
Q 20.21875 74.21875 32.171875 74.21875 
Q 37.3125 74.21875 42.625 73.28125 
Q 47.953125 72.359375 53.515625 70.515625 
z
" id="DejaVuSans-83"/>
       <path d="M 34.28125 27.484375 
Q 23.390625 27.484375 19.1875 25 
Q 14.984375 22.515625 14.984375 16.5 
Q 14.984375 11.71875 18.140625 8.90625 
Q 21.296875 6.109375 26.703125 6.109375 
Q 34.1875 6.109375 38.703125 11.40625 
Q 43.21875 16.703125 43.21875 25.484375 
L 43.21875 27.484375 
z
M 52.203125 31.203125 
L 52.203125 0 
L 43.21875 0 
L 43.21875 8.296875 
Q 40.140625 3.328125 35.546875 0.953125 
Q 30.953125 -1.421875 24.3125 -1.421875 
Q 15.921875 -1.421875 10.953125 3.296875 
Q 6 8.015625 6 15.921875 
Q 6 25.140625 12.171875 29.828125 
Q 18.359375 34.515625 30.609375 34.515625 
L 43.21875 34.515625 
L 43.21875 35.40625 
Q 43.21875 41.609375 39.140625 45 
Q 35.0625 48.390625 27.6875 48.390625 
Q 23 48.390625 18.546875 47.265625 
Q 14.109375 46.140625 10.015625 43.890625 
L 10.015625 52.203125 
Q 14.9375 54.109375 19.578125 55.046875 
Q 24.21875 56 28.609375 56 
Q 40.484375 56 46.34375 49.84375 
Q 52.203125 43.703125 52.203125 31.203125 
z
" id="DejaVuSans-97"/>
       <path d="M 52 44.1875 
Q 55.375 50.25 60.0625 53.125 
Q 64.75 56 71.09375 56 
Q 79.640625 56 84.28125 50.015625 
Q 88.921875 44.046875 88.921875 33.015625 
L 88.921875 0 
L 79.890625 0 
L 79.890625 32.71875 
Q 79.890625 40.578125 77.09375 44.375 
Q 74.3125 48.1875 68.609375 48.1875 
Q 61.625 48.1875 57.5625 43.546875 
Q 53.515625 38.921875 53.515625 30.90625 
L 53.515625 0 
L 44.484375 0 
L 44.484375 32.71875 
Q 44.484375 40.625 41.703125 44.40625 
Q 38.921875 48.1875 33.109375 48.1875 
Q 26.21875 48.1875 22.15625 43.53125 
Q 18.109375 38.875 18.109375 30.90625 
L 18.109375 0 
L 9.078125 0 
L 9.078125 54.6875 
L 18.109375 54.6875 
L 18.109375 46.1875 
Q 21.1875 51.21875 25.484375 53.609375 
Q 29.78125 56 35.6875 56 
Q 41.65625 56 45.828125 52.96875 
Q 50 49.953125 52 44.1875 
z
" id="DejaVuSans-109"/>
       <path d="M 18.109375 8.203125 
L 18.109375 -20.796875 
L 9.078125 -20.796875 
L 9.078125 54.6875 
L 18.109375 54.6875 
L 18.109375 46.390625 
Q 20.953125 51.265625 25.265625 53.625 
Q 29.59375 56 35.59375 56 
Q 45.5625 56 51.78125 48.09375 
Q 58.015625 40.1875 58.015625 27.296875 
Q 58.015625 14.40625 51.78125 6.484375 
Q 45.5625 -1.421875 35.59375 -1.421875 
Q 29.59375 -1.421875 25.265625 0.953125 
Q 20.953125 3.328125 18.109375 8.203125 
z
M 48.6875 27.296875 
Q 48.6875 37.203125 44.609375 42.84375 
Q 40.53125 48.484375 33.40625 48.484375 
Q 26.265625 48.484375 22.1875 42.84375 
Q 18.109375 37.203125 18.109375 27.296875 
Q 18.109375 17.390625 22.1875 11.75 
Q 26.265625 6.109375 33.40625 6.109375 
Q 40.53125 6.109375 44.609375 11.75 
Q 48.6875 17.390625 48.6875 27.296875 
z
" id="DejaVuSans-112"/>
       <path d="M 9.421875 75.984375 
L 18.40625 75.984375 
L 18.40625 0 
L 9.421875 0 
z
" id="DejaVuSans-108"/>
       <path d="M 56.203125 29.59375 
L 56.203125 25.203125 
L 14.890625 25.203125 
Q 15.484375 15.921875 20.484375 11.0625 
Q 25.484375 6.203125 34.421875 6.203125 
Q 39.59375 6.203125 44.453125 7.46875 
Q 49.3125 8.734375 54.109375 11.28125 
L 54.109375 2.78125 
Q 49.265625 0.734375 44.1875 -0.34375 
Q 39.109375 -1.421875 33.890625 -1.421875 
Q 20.796875 -1.421875 13.15625 6.1875 
Q 5.515625 13.8125 5.515625 26.8125 
Q 5.515625 40.234375 12.765625 48.109375 
Q 20.015625 56 32.328125 56 
Q 43.359375 56 49.78125 48.890625 
Q 56.203125 41.796875 56.203125 29.59375 
z
M 47.21875 32.234375 
Q 47.125 39.59375 43.09375 43.984375 
Q 39.0625 48.390625 32.421875 48.390625 
Q 24.90625 48.390625 20.390625 44.140625 
Q 15.875 39.890625 15.1875 32.171875 
z
" id="DejaVuSans-101"/>
      </defs>
      <use xlink:href="#DejaVuSans-83"/>
      <use x="63.476562" xlink:href="#DejaVuSans-97"/>
      <use x="124.755859" xlink:href="#DejaVuSans-109"/>
      <use x="222.167969" xlink:href="#DejaVuSans-112"/>
      <use x="285.644531" xlink:href="#DejaVuSans-108"/>
      <use x="313.427734" xlink:href="#DejaVuSans-101"/>
     </g>
    </g>
   </g>
   <g id="matplotlib.axis_2">
    <g id="ytick_1">
     <g id="line2d_13">
      <path clip-path="url(#pf783bd5d2f)" d="M 47.63 88.874545 
L 450 88.874545 
" style="fill:none;stroke:#b0b0b0;stroke-linecap:square;stroke-width:0.8;"/>
     </g>
     <g id="line2d_14">
      <defs>
       <path d="M 0 0 
L -3.5 0 
" id="m9753063fd5" style="stroke:#000000;stroke-width:0.8;"/>
      </defs>
      <g>
       <use style="stroke:#000000;stroke-width:0.8;" x="47.63" xlink:href="#m9753063fd5" y="88.874545"/>
      </g>
     </g>
     <g id="text_2">
      <!-- 0.0 -->
      <g transform="translate(24.726875 92.673764)scale(0.1 -0.1)">
       <defs>
        <path d="M 31.78125 66.40625 
Q 24.171875 66.40625 20.328125 58.90625 
Q 16.5 51.421875 16.5 36.375 
Q 16.5 21.390625 20.328125 13.890625 
Q 24.171875 6.390625 31.78125 6.390625 
Q 39.453125 6.390625 43.28125 13.890625 
Q 47.125 21.390625 47.125 36.375 
Q 47.125 51.421875 43.28125 58.90625 
Q 39.453125 66.40625 31.78125 66.40625 
z
M 31.78125 74.21875 
Q 44.046875 74.21875 50.515625 64.515625 
Q 56.984375 54.828125 56.984375 36.375 
Q 56.984375 17.96875 50.515625 8.265625 
Q 44.046875 -1.421875 31.78125 -1.421875 
Q 19.53125 -1.421875 13.0625 8.265625 
Q 6.59375 17.96875 6.59375 36.375 
Q 6.59375 54.828125 13.0625 64.515625 
Q 19.53125 74.21875 31.78125 74.21875 
z
" id="DejaVuSans-48"/>
        <path d="M 10.6875 12.40625 
L 21 12.40625 
L 21 0 
L 10.6875 0 
z
" id="DejaVuSans-46"/>
       </defs>
       <use xlink:href="#DejaVuSans-48"/>
       <use x="63.623047" xlink:href="#DejaVuSans-46"/>
       <use x="95.410156" xlink:href="#DejaVuSans-48"/>
      </g>
     </g>
    </g>
    <g id="ytick_2">
     <g id="line2d_15">
      <path clip-path="url(#pf783bd5d2f)" d="M 47.63 65.145017 
L 450 65.145017 
" style="fill:none;stroke:#b0b0b0;stroke-linecap:square;stroke-width:0.8;"/>
     </g>
     <g id="line2d_16">
      <g>
       <use style="stroke:#000000;stroke-width:0.8;" x="47.63" xlink:href="#m9753063fd5" y="65.145017"/>
      </g>
     </g>
     <g id="text_3">
      <!-- 2.5 -->
      <g transform="translate(24.726875 68.944235)scale(0.1 -0.1)">
       <defs>
        <path d="M 19.1875 8.296875 
L 53.609375 8.296875 
L 53.609375 0 
L 7.328125 0 
L 7.328125 8.296875 
Q 12.9375 14.109375 22.625 23.890625 
Q 32.328125 33.6875 34.8125 36.53125 
Q 39.546875 41.84375 41.421875 45.53125 
Q 43.3125 49.21875 43.3125 52.78125 
Q 43.3125 58.59375 39.234375 62.25 
Q 35.15625 65.921875 28.609375 65.921875 
Q 23.96875 65.921875 18.8125 64.3125 
Q 13.671875 62.703125 7.8125 59.421875 
L 7.8125 69.390625 
Q 13.765625 71.78125 18.9375 73 
Q 24.125 74.21875 28.421875 74.21875 
Q 39.75 74.21875 46.484375 68.546875 
Q 53.21875 62.890625 53.21875 53.421875 
Q 53.21875 48.921875 51.53125 44.890625 
Q 49.859375 40.875 45.40625 35.40625 
Q 44.1875 33.984375 37.640625 27.21875 
Q 31.109375 20.453125 19.1875 8.296875 
z
" id="DejaVuSans-50"/>
        <path d="M 10.796875 72.90625 
L 49.515625 72.90625 
L 49.515625 64.59375 
L 19.828125 64.59375 
L 19.828125 46.734375 
Q 21.96875 47.46875 24.109375 47.828125 
Q 26.265625 48.1875 28.421875 48.1875 
Q 40.625 48.1875 47.75 41.5 
Q 54.890625 34.8125 54.890625 23.390625 
Q 54.890625 11.625 47.5625 5.09375 
Q 40.234375 -1.421875 26.90625 -1.421875 
Q 22.3125 -1.421875 17.546875 -0.640625 
Q 12.796875 0.140625 7.71875 1.703125 
L 7.71875 11.625 
Q 12.109375 9.234375 16.796875 8.0625 
Q 21.484375 6.890625 26.703125 6.890625 
Q 35.15625 6.890625 40.078125 11.328125 
Q 45.015625 15.765625 45.015625 23.390625 
Q 45.015625 31 40.078125 35.4375 
Q 35.15625 39.890625 26.703125 39.890625 
Q 22.75 39.890625 18.8125 39.015625 
Q 14.890625 38.140625 10.796875 36.28125 
z
" id="DejaVuSans-53"/>
       </defs>
       <use xlink:href="#DejaVuSans-50"/>
       <use x="63.623047" xlink:href="#DejaVuSans-46"/>
       <use x="95.410156" xlink:href="#DejaVuSans-53"/>
      </g>
     </g>
    </g>
    <g id="ytick_3">
     <g id="line2d_17">
      <path clip-path="url(#pf783bd5d2f)" d="M 47.63 41.415488 
L 450 41.415488 
" style="fill:none;stroke:#b0b0b0;stroke-linecap:square;stroke-width:0.8;"/>
     </g>
     <g id="line2d_18">
      <g>
       <use style="stroke:#000000;stroke-width:0.8;" x="47.63" xlink:href="#m9753063fd5" y="41.415488"/>
      </g>
     </g>
     <g id="text_4">
      <!-- 5.0 -->
      <g transform="translate(24.726875 45.214706)scale(0.1 -0.1)">
       <use xlink:href="#DejaVuSans-53"/>
       <use x="63.623047" xlink:href="#DejaVuSans-46"/>
       <use x="95.410156" xlink:href="#DejaVuSans-48"/>
      </g>
     </g>
    </g>
    <g id="text_5">
     <!-- Amplitude -->
     <g transform="translate(18.647188 84.97599)rotate(-90)scale(0.1 -0.1)">
      <defs>
       <path d="M 34.1875 63.1875 
L 20.796875 26.90625 
L 47.609375 26.90625 
z
M 28.609375 72.90625 
L 39.796875 72.90625 
L 67.578125 0 
L 57.328125 0 
L 50.6875 18.703125 
L 17.828125 18.703125 
L 11.1875 0 
L 0.78125 0 
z
" id="DejaVuSans-65"/>
       <path d="M 9.421875 54.6875 
L 18.40625 54.6875 
L 18.40625 0 
L 9.421875 0 
z
M 9.421875 75.984375 
L 18.40625 75.984375 
L 18.40625 64.59375 
L 9.421875 64.59375 
z
" id="DejaVuSans-105"/>
       <path d="M 18.3125 70.21875 
L 18.3125 54.6875 
L 36.8125 54.6875 
L 36.8125 47.703125 
L 18.3125 47.703125 
L 18.3125 18.015625 
Q 18.3125 11.328125 20.140625 9.421875 
Q 21.96875 7.515625 27.59375 7.515625 
L 36.8125 7.515625 
L 36.8125 0 
L 27.59375 0 
Q 17.1875 0 13.234375 3.875 
Q 9.28125 7.765625 9.28125 18.015625 
L 9.28125 47.703125 
L 2.6875 47.703125 
L 2.6875 54.6875 
L 9.28125 54.6875 
L 9.28125 70.21875 
z
" id="DejaVuSans-116"/>
       <path d="M 8.5 21.578125 
L 8.5 54.6875 
L 17.484375 54.6875 
L 17.484375 21.921875 
Q 17.484375 14.15625 20.5 10.265625 
Q 23.53125 6.390625 29.59375 6.390625 
Q 36.859375 6.390625 41.078125 11.03125 
Q 45.3125 15.671875 45.3125 23.6875 
L 45.3125 54.6875 
L 54.296875 54.6875 
L 54.296875 0 
L 45.3125 0 
L 45.3125 8.40625 
Q 42.046875 3.421875 37.71875 1 
Q 33.40625 -1.421875 27.6875 -1.421875 
Q 18.265625 -1.421875 13.375 4.4375 
Q 8.5 10.296875 8.5 21.578125 
z
M 31.109375 56 
z
" id="DejaVuSans-117"/>
       <path d="M 45.40625 46.390625 
L 45.40625 75.984375 
L 54.390625 75.984375 
L 54.390625 0 
L 45.40625 0 
L 45.40625 8.203125 
Q 42.578125 3.328125 38.25 0.953125 
Q 33.9375 -1.421875 27.875 -1.421875 
Q 17.96875 -1.421875 11.734375 6.484375 
Q 5.515625 14.40625 5.515625 27.296875 
Q 5.515625 40.1875 11.734375 48.09375 
Q 17.96875 56 27.875 56 
Q 33.9375 56 38.25 53.625 
Q 42.578125 51.265625 45.40625 46.390625 
z
M 14.796875 27.296875 
Q 14.796875 17.390625 18.875 11.75 
Q 22.953125 6.109375 30.078125 6.109375 
Q 37.203125 6.109375 41.296875 11.75 
Q 45.40625 17.390625 45.40625 27.296875 
Q 45.40625 37.203125 41.296875 42.84375 
Q 37.203125 48.484375 30.078125 48.484375 
Q 22.953125 48.484375 18.875 42.84375 
Q 14.796875 37.203125 14.796875 27.296875 
z
" id="DejaVuSans-100"/>
      </defs>
      <use xlink:href="#DejaVuSans-65"/>
      <use x="68.408203" xlink:href="#DejaVuSans-109"/>
      <use x="165.820312" xlink:href="#DejaVuSans-112"/>
      <use x="229.296875" xlink:href="#DejaVuSans-108"/>
      <use x="257.080078" xlink:href="#DejaVuSans-105"/>
      <use x="284.863281" xlink:href="#DejaVuSans-116"/>
      <use x="324.072266" xlink:href="#DejaVuSans-117"/>
      <use x="387.451172" xlink:href="#DejaVuSans-100"/>
      <use x="450.927734" xlink:href="#DejaVuSans-101"/>
     </g>
    </g>
   </g>
   <g id="line2d_19">
    <path clip-path="url(#pf783bd5d2f)" d="M 65.919545 88.874545 
L 69.614403 88.278157 
L 73.309261 87.681769 
L 77.004118 87.085381 
L 80.698976 86.488993 
L 84.393834 85.892605 
L 88.088691 85.296217 
L 91.783549 84.699829 
L 95.478407 84.10344 
L 99.173264 83.507053 
L 102.868122 82.910664 
L 106.56298 82.314276 
L 110.257837 81.717888 
L 113.952695 81.1215 
L 117.647553 80.525112 
L 121.34241 79.928724 
L 125.037268 79.332335 
L 128.732126 78.735948 
L 132.426983 78.13956 
L 136.121841 77.543171 
L 139.816699 76.946783 
L 143.511556 76.350396 
L 147.206414 75.754007 
L 150.901272 75.157619 
L 154.596129 74.561231 
L 158.290987 73.964842 
L 161.985845 73.368455 
L 165.680702 72.772067 
L 169.37556 72.175678 
L 173.070418 71.57929 
L 176.765275 70.982902 
L 180.460133 70.386514 
L 184.154991 69.790125 
L 187.849848 69.193739 
L 191.544706 68.597351 
L 195.239564 68.000962 
L 198.934421 67.404574 
L 202.629279 66.808185 
L 206.324137 66.211797 
L 210.018994 65.615409 
L 213.713852 65.01902 
L 217.40871 64.422632 
L 221.103567 63.826246 
L 224.798425 63.229858 
L 228.493283 62.633469 
L 232.18814 62.037081 
L 235.882998 61.440693 
L 239.577856 60.844304 
L 243.272713 60.247916 
L 246.967571 59.651528 
L 250.662429 59.055139 
L 254.357287 58.458751 
L 258.052144 57.862365 
L 261.747002 57.265976 
L 265.44186 56.669588 
L 269.136717 56.0732 
L 272.831575 55.476811 
L 276.526433 54.880423 
L 280.22129 54.284035 
L 283.916148 53.687646 
L 287.611006 53.091258 
L 291.305863 52.494872 
L 295.000721 51.898483 
L 298.695579 51.302095 
L 302.390436 50.705704 
L 306.085294 50.109316 
L 309.780152 49.512932 
L 313.475009 48.916544 
L 317.169867 48.320156 
L 320.864725 47.723767 
L 324.559582 47.127379 
L 328.25444 46.530991 
L 331.949298 45.934602 
L 335.644155 45.338214 
L 339.339013 44.741825 
L 343.033871 44.145437 
L 346.728728 43.549049 
L 350.423586 42.95266 
L 354.118444 42.356272 
L 357.813301 41.759884 
L 361.508159 41.163495 
L 365.203017 40.567107 
L 368.897874 39.970719 
L 372.592732 39.37433 
L 376.28759 38.777946 
L 379.982447 38.181558 
L 383.677305 37.58517 
L 387.372163 36.988781 
L 391.06702 36.392393 
L 394.761878 35.796005 
L 398.456736 35.199616 
L 402.151593 34.603228 
L 405.846451 34.00684 
L 409.541309 33.410451 
L 413.236166 32.814063 
L 416.931024 32.217675 
L 420.625882 31.621286 
L 424.320739 31.024898 
L 428.015597 30.42851 
L 431.710455 29.832121 
" style="fill:none;stroke:#1f77b4;stroke-linecap:square;stroke-width:1.5;"/>
    <defs>
     <path d="M 0 1.5 
C 0.397805 1.5 0.77937 1.341951 1.06066 1.06066 
C 1.341951 0.77937 1.5 0.397805 1.5 0 
C 1.5 -0.397805 1.341951 -0.77937 1.06066 -1.06066 
C 0.77937 -1.341951 0.397805 -1.5 0 -1.5 
C -0.397805 -1.5 -0.77937 -1.341951 -1.06066 -1.06066 
C -1.341951 -0.77937 -1.5 -0.397805 -1.5 0 
C -1.5 0.397805 -1.341951 0.77937 -1.06066 1.06066 
C -0.77937 1.341951 -0.397805 1.5 0 1.5 
z
" id="m3f023cc95f" style="stroke:#1f77b4;"/>
    </defs>
    <g clip-path="url(#pf783bd5d2f)">
     <use style="fill:#1f77b4;stroke:#1f77b4;" x="65.919545" xlink:href="#m3f023cc95f" y="88.874545"/>
     <use style="fill:#1f77b4;stroke:#1f77b4;" x="69.614403" xlink:href="#m3f023cc95f" y="88.278157"/>
     <use style="fill:#1f77b4;stroke:#1f77b4;" x="73.309261" xlink:href="#m3f023cc95f" y="87.681769"/>
     <use style="fill:#1f77b4;stroke:#1f77b4;" x="77.004118" xlink:href="#m3f023cc95f" y="87.085381"/>
     <use style="fill:#1f77b4;stroke:#1f77b4;" x="80.698976" xlink:href="#m3f023cc95f" y="86.488993"/>
     <use style="fill:#1f77b4;stroke:#1f77b4;" x="84.393834" xlink:href="#m3f023cc95f" y="85.892605"/>
     <use style="fill:#1f77b4;stroke:#1f77b4;" x="88.088691" xlink:href="#m3f023cc95f" y="85.296217"/>
     <use style="fill:#1f77b4;stroke:#1f77b4;" x="91.783549" xlink:href="#m3f023cc95f" y="84.699829"/>
     <use style="fill:#1f77b4;stroke:#1f77b4;" x="95.478407" xlink:href="#m3f023cc95f" y="84.10344"/>
     <use style="fill:#1f77b4;stroke:#1f77b4;" x="99.173264" xlink:href="#m3f023cc95f" y="83.507053"/>
     <use style="fill:#1f77b4;stroke:#1f77b4;" x="102.868122" xlink:href="#m3f023cc95f" y="82.910664"/>
     <use style="fill:#1f77b4;stroke:#1f77b4;" x="106.56298" xlink:href="#m3f023cc95f" y="82.314276"/>
     <use style="fill:#1f77b4;stroke:#1f77b4;" x="110.257837" xlink:href="#m3f023cc95f" y="81.717888"/>
     <use style="fill:#1f77b4;stroke:#1f77b4;" x="113.952695" xlink:href="#m3f023cc95f" y="81.1215"/>
     <use style="fill:#1f77b4;stroke:#1f77b4;" x="117.647553" xlink:href="#m3f023cc95f" y="80.525112"/>
     <use style="fill:#1f77b4;stroke:#1f77b4;" x="121.34241" xlink:href="#m3f023cc95f" y="79.928724"/>
     <use style="fill:#1f77b4;stroke:#1f77b4;" x="125.037268" xlink:href="#m3f023cc95f" y="79.332335"/>
     <use style="fill:#1f77b4;stroke:#1f77b4;" x="128.732126" xlink:href="#m3f023cc95f" y="78.735948"/>
     <use style="fill:#1f77b4;stroke:#1f77b4;" x="132.426983" xlink:href="#m3f023cc95f" y="78.13956"/>
     <use style="fill:#1f77b4;stroke:#1f77b4;" x="136.121841" xlink:href="#m3f023cc95f" y="77.543171"/>
     <use style="fill:#1f77b4;stroke:#1f77b4;" x="139.816699" xlink:href="#m3f023cc95f" y="76.946783"/>
     <use style="fill:#1f77b4;stroke:#1f77b4;" x="143.511556" xlink:href="#m3f023cc95f" y="76.350396"/>
     <use style="fill:#1f77b4;stroke:#1f77b4;" x="147.206414" xlink:href="#m3f023cc95f" y="75.754007"/>
     <use style="fill:#1f77b4;stroke:#1f77b4;" x="150.901272" xlink:href="#m3f023cc95f" y="75.157619"/>
     <use style="fill:#1f77b4;stroke:#1f77b4;" x="154.596129" xlink:href="#m3f023cc95f" y="74.561231"/>
     <use style="fill:#1f77b4;stroke:#1f77b4;" x="158.290987" xlink:href="#m3f023cc95f" y="73.964842"/>
     <use style="fill:#1f77b4;stroke:#1f77b4;" x="161.985845" xlink:href="#m3f023cc95f" y="73.368455"/>
     <use style="fill:#1f77b4;stroke:#1f77b4;" x="165.680702" xlink:href="#m3f023cc95f" y="72.772067"/>
     <use style="fill:#1f77b4;stroke:#1f77b4;" x="169.37556" xlink:href="#m3f023cc95f" y="72.175678"/>
     <use style="fill:#1f77b4;stroke:#1f77b4;" x="173.070418" xlink:href="#m3f023cc95f" y="71.57929"/>
     <use style="fill:#1f77b4;stroke:#1f77b4;" x="176.765275" xlink:href="#m3f023cc95f" y="70.982902"/>
     <use style="fill:#1f77b4;stroke:#1f77b4;" x="180.460133" xlink:href="#m3f023cc95f" y="70.386514"/>
     <use style="fill:#1f77b4;stroke:#1f77b4;" x="184.154991" xlink:href="#m3f023cc95f" y="69.790125"/>
     <use style="fill:#1f77b4;stroke:#1f77b4;" x="187.849848" xlink:href="#m3f023cc95f" y="69.193739"/>
     <use style="fill:#1f77b4;stroke:#1f77b4;" x="191.544706" xlink:href="#m3f023cc95f" y="68.597351"/>
     <use style="fill:#1f77b4;stroke:#1f77b4;" x="195.239564" xlink:href="#m3f023cc95f" y="68.000962"/>
     <use style="fill:#1f77b4;stroke:#1f77b4;" x="198.934421" xlink:href="#m3f023cc95f" y="67.404574"/>
     <use style="fill:#1f77b4;stroke:#1f77b4;" x="202.629279" xlink:href="#m3f023cc95f" y="66.808185"/>
     <use style="fill:#1f77b4;stroke:#1f77b4;" x="206.324137" xlink:href="#m3f023cc95f" y="66.211797"/>
     <use style="fill:#1f77b4;stroke:#1f77b4;" x="210.018994" xlink:href="#m3f023cc95f" y="65.615409"/>
     <use style="fill:#1f77b4;stroke:#1f77b4;" x="213.713852" xlink:href="#m3f023cc95f" y="65.01902"/>
     <use style="fill:#1f77b4;stroke:#1f77b4;" x="217.40871" xlink:href="#m3f023cc95f" y="64.422632"/>
     <use style="fill:#1f77b4;stroke:#1f77b4;" x="221.103567" xlink:href="#m3f023cc95f" y="63.826246"/>
     <use style="fill:#1f77b4;stroke:#1f77b4;" x="224.798425" xlink:href="#m3f023cc95f" y="63.229858"/>
     <use style="fill:#1f77b4;stroke:#1f77b4;" x="228.493283" xlink:href="#m3f023cc95f" y="62.633469"/>
     <use style="fill:#1f77b4;stroke:#1f77b4;" x="232.18814" xlink:href="#m3f023cc95f" y="62.037081"/>
     <use style="fill:#1f77b4;stroke:#1f77b4;" x="235.882998" xlink:href="#m3f023cc95f" y="61.440693"/>
     <use style="fill:#1f77b4;stroke:#1f77b4;" x="239.577856" xlink:href="#m3f023cc95f" y="60.844304"/>
     <use style="fill:#1f77b4;stroke:#1f77b4;" x="243.272713" xlink:href="#m3f023cc95f" y="60.247916"/>
     <use style="fill:#1f77b4;stroke:#1f77b4;" x="246.967571" xlink:href="#m3f023cc95f" y="59.651528"/>
     <use style="fill:#1f77b4;stroke:#1f77b4;" x="250.662429" xlink:href="#m3f023cc95f" y="59.055139"/>
     <use style="fill:#1f77b4;stroke:#1f77b4;" x="254.357287" xlink:href="#m3f023cc95f" y="58.458751"/>
     <use style="fill:#1f77b4;stroke:#1f77b4;" x="258.052144" xlink:href="#m3f023cc95f" y="57.862365"/>
     <use style="fill:#1f77b4;stroke:#1f77b4;" x="261.747002" xlink:href="#m3f023cc95f" y="57.265976"/>
     <use style="fill:#1f77b4;stroke:#1f77b4;" x="265.44186" xlink:href="#m3f023cc95f" y="56.669588"/>
     <use style="fill:#1f77b4;stroke:#1f77b4;" x="269.136717" xlink:href="#m3f023cc95f" y="56.0732"/>
     <use style="fill:#1f77b4;stroke:#1f77b4;" x="272.831575" xlink:href="#m3f023cc95f" y="55.476811"/>
     <use style="fill:#1f77b4;stroke:#1f77b4;" x="276.526433" xlink:href="#m3f023cc95f" y="54.880423"/>
     <use style="fill:#1f77b4;stroke:#1f77b4;" x="280.22129" xlink:href="#m3f023cc95f" y="54.284035"/>
     <use style="fill:#1f77b4;stroke:#1f77b4;" x="283.916148" xlink:href="#m3f023cc95f" y="53.687646"/>
     <use style="fill:#1f77b4;stroke:#1f77b4;" x="287.611006" xlink:href="#m3f023cc95f" y="53.091258"/>
     <use style="fill:#1f77b4;stroke:#1f77b4;" x="291.305863" xlink:href="#m3f023cc95f" y="52.494872"/>
     <use style="fill:#1f77b4;stroke:#1f77b4;" x="295.000721" xlink:href="#m3f023cc95f" y="51.898483"/>
     <use style="fill:#1f77b4;stroke:#1f77b4;" x="298.695579" xlink:href="#m3f023cc95f" y="51.302095"/>
     <use style="fill:#1f77b4;stroke:#1f77b4;" x="302.390436" xlink:href="#m3f023cc95f" y="50.705704"/>
     <use style="fill:#1f77b4;stroke:#1f77b4;" x="306.085294" xlink:href="#m3f023cc95f" y="50.109316"/>
     <use style="fill:#1f77b4;stroke:#1f77b4;" x="309.780152" xlink:href="#m3f023cc95f" y="49.512932"/>
     <use style="fill:#1f77b4;stroke:#1f77b4;" x="313.475009" xlink:href="#m3f023cc95f" y="48.916544"/>
     <use style="fill:#1f77b4;stroke:#1f77b4;" x="317.169867" xlink:href="#m3f023cc95f" y="48.320156"/>
     <use style="fill:#1f77b4;stroke:#1f77b4;" x="320.864725" xlink:href="#m3f023cc95f" y="47.723767"/>
     <use style="fill:#1f77b4;stroke:#1f77b4;" x="324.559582" xlink:href="#m3f023cc95f" y="47.127379"/>
     <use style="fill:#1f77b4;stroke:#1f77b4;" x="328.25444" xlink:href="#m3f023cc95f" y="46.530991"/>
     <use style="fill:#1f77b4;stroke:#1f77b4;" x="331.949298" xlink:href="#m3f023cc95f" y="45.934602"/>
     <use style="fill:#1f77b4;stroke:#1f77b4;" x="335.644155" xlink:href="#m3f023cc95f" y="45.338214"/>
     <use style="fill:#1f77b4;stroke:#1f77b4;" x="339.339013" xlink:href="#m3f023cc95f" y="44.741825"/>
     <use style="fill:#1f77b4;stroke:#1f77b4;" x="343.033871" xlink:href="#m3f023cc95f" y="44.145437"/>
     <use style="fill:#1f77b4;stroke:#1f77b4;" x="346.728728" xlink:href="#m3f023cc95f" y="43.549049"/>
     <use style="fill:#1f77b4;stroke:#1f77b4;" x="350.423586" xlink:href="#m3f023cc95f" y="42.95266"/>
     <use style="fill:#1f77b4;stroke:#1f77b4;" x="354.118444" xlink:href="#m3f023cc95f" y="42.356272"/>
     <use style="fill:#1f77b4;stroke:#1f77b4;" x="357.813301" xlink:href="#m3f023cc95f" y="41.759884"/>
     <use style="fill:#1f77b4;stroke:#1f77b4;" x="361.508159" xlink:href="#m3f023cc95f" y="41.163495"/>
     <use style="fill:#1f77b4;stroke:#1f77b4;" x="365.203017" xlink:href="#m3f023cc95f" y="40.567107"/>
     <use style="fill:#1f77b4;stroke:#1f77b4;" x="368.897874" xlink:href="#m3f023cc95f" y="39.970719"/>
     <use style="fill:#1f77b4;stroke:#1f77b4;" x="372.592732" xlink:href="#m3f023cc95f" y="39.37433"/>
     <use style="fill:#1f77b4;stroke:#1f77b4;" x="376.28759" xlink:href="#m3f023cc95f" y="38.777946"/>
     <use style="fill:#1f77b4;stroke:#1f77b4;" x="379.982447" xlink:href="#m3f023cc95f" y="38.181558"/>
     <use style="fill:#1f77b4;stroke:#1f77b4;" x="383.677305" xlink:href="#m3f023cc95f" y="37.58517"/>
     <use style="fill:#1f77b4;stroke:#1f77b4;" x="387.372163" xlink:href="#m3f023cc95f" y="36.988781"/>
     <use style="fill:#1f77b4;stroke:#1f77b4;" x="391.06702" xlink:href="#m3f023cc95f" y="36.392393"/>
     <use style="fill:#1f77b4;stroke:#1f77b4;" x="394.761878" xlink:href="#m3f023cc95f" y="35.796005"/>
     <use style="fill:#1f77b4;stroke:#1f77b4;" x="398.456736" xlink:href="#m3f023cc95f" y="35.199616"/>
     <use style="fill:#1f77b4;stroke:#1f77b4;" x="402.151593" xlink:href="#m3f023cc95f" y="34.603228"/>
     <use style="fill:#1f77b4;stroke:#1f77b4;" x="405.846451" xlink:href="#m3f023cc95f" y="34.00684"/>
     <use style="fill:#1f77b4;stroke:#1f77b4;" x="409.541309" xlink:href="#m3f023cc95f" y="33.410451"/>
     <use style="fill:#1f77b4;stroke:#1f77b4;" x="413.236166" xlink:href="#m3f023cc95f" y="32.814063"/>
     <use style="fill:#1f77b4;stroke:#1f77b4;" x="416.931024" xlink:href="#m3f023cc95f" y="32.217675"/>
     <use style="fill:#1f77b4;stroke:#1f77b4;" x="420.625882" xlink:href="#m3f023cc95f" y="31.621286"/>
     <use style="fill:#1f77b4;stroke:#1f77b4;" x="424.320739" xlink:href="#m3f023cc95f" y="31.024898"/>
     <use style="fill:#1f77b4;stroke:#1f77b4;" x="428.015597" xlink:href="#m3f023cc95f" y="30.42851"/>
     <use style="fill:#1f77b4;stroke:#1f77b4;" x="431.710455" xlink:href="#m3f023cc95f" y="29.832121"/>
    </g>
   </g>
   <g id="patch_3">
    <path d="M 47.63 91.826667 
L 47.63 26.88 
" style="fill:none;stroke:#000000;stroke-linecap:square;stroke-linejoin:miter;stroke-width:0.8;"/>
   </g>
   <g id="patch_4">
    <path d="M 450 91.826667 
L 450 26.88 
" style="fill:none;stroke:#000000;stroke-linecap:square;stroke-linejoin:miter;stroke-width:0.8;"/>
   </g>
   <g id="patch_5">
    <path d="M 47.63 91.826667 
L 450 91.826667 
" style="fill:none;stroke:#000000;stroke-linecap:square;stroke-linejoin:miter;stroke-width:0.8;"/>
   </g>
   <g id="patch_6">
    <path d="M 47.63 26.88 
L 450 26.88 
" style="fill:none;stroke:#000000;stroke-linecap:square;stroke-linejoin:miter;stroke-width:0.8;"/>
   </g>
   <g id="text_6">
    <!-- Original angle -->
    <g transform="translate(206.782187 20.88)scale(0.12 -0.12)">
     <defs>
      <path d="M 39.40625 66.21875 
Q 28.65625 66.21875 22.328125 58.203125 
Q 16.015625 50.203125 16.015625 36.375 
Q 16.015625 22.609375 22.328125 14.59375 
Q 28.65625 6.59375 39.40625 6.59375 
Q 50.140625 6.59375 56.421875 14.59375 
Q 62.703125 22.609375 62.703125 36.375 
Q 62.703125 50.203125 56.421875 58.203125 
Q 50.140625 66.21875 39.40625 66.21875 
z
M 39.40625 74.21875 
Q 54.734375 74.21875 63.90625 63.9375 
Q 73.09375 53.65625 73.09375 36.375 
Q 73.09375 19.140625 63.90625 8.859375 
Q 54.734375 -1.421875 39.40625 -1.421875 
Q 24.03125 -1.421875 14.8125 8.828125 
Q 5.609375 19.09375 5.609375 36.375 
Q 5.609375 53.65625 14.8125 63.9375 
Q 24.03125 74.21875 39.40625 74.21875 
z
" id="DejaVuSans-79"/>
      <path d="M 41.109375 46.296875 
Q 39.59375 47.171875 37.8125 47.578125 
Q 36.03125 48 33.890625 48 
Q 26.265625 48 22.1875 43.046875 
Q 18.109375 38.09375 18.109375 28.8125 
L 18.109375 0 
L 9.078125 0 
L 9.078125 54.6875 
L 18.109375 54.6875 
L 18.109375 46.1875 
Q 20.953125 51.171875 25.484375 53.578125 
Q 30.03125 56 36.53125 56 
Q 37.453125 56 38.578125 55.875 
Q 39.703125 55.765625 41.0625 55.515625 
z
" id="DejaVuSans-114"/>
      <path d="M 45.40625 27.984375 
Q 45.40625 37.75 41.375 43.109375 
Q 37.359375 48.484375 30.078125 48.484375 
Q 22.859375 48.484375 18.828125 43.109375 
Q 14.796875 37.75 14.796875 27.984375 
Q 14.796875 18.265625 18.828125 12.890625 
Q 22.859375 7.515625 30.078125 7.515625 
Q 37.359375 7.515625 41.375 12.890625 
Q 45.40625 18.265625 45.40625 27.984375 
z
M 54.390625 6.78125 
Q 54.390625 -7.171875 48.1875 -13.984375 
Q 42 -20.796875 29.203125 -20.796875 
Q 24.46875 -20.796875 20.265625 -20.09375 
Q 16.0625 -19.390625 12.109375 -17.921875 
L 12.109375 -9.1875 
Q 16.0625 -11.328125 19.921875 -12.34375 
Q 23.78125 -13.375 27.78125 -13.375 
Q 36.625 -13.375 41.015625 -8.765625 
Q 45.40625 -4.15625 45.40625 5.171875 
L 45.40625 9.625 
Q 42.625 4.78125 38.28125 2.390625 
Q 33.9375 0 27.875 0 
Q 17.828125 0 11.671875 7.65625 
Q 5.515625 15.328125 5.515625 27.984375 
Q 5.515625 40.671875 11.671875 48.328125 
Q 17.828125 56 27.875 56 
Q 33.9375 56 38.28125 53.609375 
Q 42.625 51.21875 45.40625 46.390625 
L 45.40625 54.6875 
L 54.390625 54.6875 
z
" id="DejaVuSans-103"/>
      <path d="M 54.890625 33.015625 
L 54.890625 0 
L 45.90625 0 
L 45.90625 32.71875 
Q 45.90625 40.484375 42.875 44.328125 
Q 39.84375 48.1875 33.796875 48.1875 
Q 26.515625 48.1875 22.3125 43.546875 
Q 18.109375 38.921875 18.109375 30.90625 
L 18.109375 0 
L 9.078125 0 
L 9.078125 54.6875 
L 18.109375 54.6875 
L 18.109375 46.1875 
Q 21.34375 51.125 25.703125 53.5625 
Q 30.078125 56 35.796875 56 
Q 45.21875 56 50.046875 50.171875 
Q 54.890625 44.34375 54.890625 33.015625 
z
" id="DejaVuSans-110"/>
      <path id="DejaVuSans-32"/>
     </defs>
     <use xlink:href="#DejaVuSans-79"/>
     <use x="78.710938" xlink:href="#DejaVuSans-114"/>
     <use x="119.824219" xlink:href="#DejaVuSans-105"/>
     <use x="147.607422" xlink:href="#DejaVuSans-103"/>
     <use x="211.083984" xlink:href="#DejaVuSans-105"/>
     <use x="238.867188" xlink:href="#DejaVuSans-110"/>
     <use x="302.246094" xlink:href="#DejaVuSans-97"/>
     <use x="363.525391" xlink:href="#DejaVuSans-108"/>
     <use x="391.308594" xlink:href="#DejaVuSans-32"/>
     <use x="423.095703" xlink:href="#DejaVuSans-97"/>
     <use x="484.375" xlink:href="#DejaVuSans-110"/>
     <use x="547.753906" xlink:href="#DejaVuSans-103"/>
     <use x="611.230469" xlink:href="#DejaVuSans-108"/>
     <use x="639.013672" xlink:href="#DejaVuSans-101"/>
    </g>
   </g>
   <g id="legend_1">
    <g id="patch_7">
     <path d="M 54.63 49.558125 
L 142.656563 49.558125 
Q 144.656563 49.558125 144.656563 47.558125 
L 144.656563 33.88 
Q 144.656563 31.88 142.656563 31.88 
L 54.63 31.88 
Q 52.63 31.88 52.63 33.88 
L 52.63 47.558125 
Q 52.63 49.558125 54.63 49.558125 
z
" style="fill:#ffffff;opacity:0.8;stroke:#cccccc;stroke-linejoin:miter;"/>
    </g>
    <g id="line2d_20">
     <path d="M 56.63 39.978438 
L 76.63 39.978438 
" style="fill:none;stroke:#1f77b4;stroke-linecap:square;stroke-width:1.5;"/>
    </g>
    <g id="line2d_21">
     <g>
      <use style="fill:#1f77b4;stroke:#1f77b4;" x="66.63" xlink:href="#m3f023cc95f" y="39.978438"/>
     </g>
    </g>
    <g id="text_7">
     <!-- Angle [rad] -->
     <g transform="translate(84.63 43.478438)scale(0.1 -0.1)">
      <defs>
       <path d="M 8.59375 75.984375 
L 29.296875 75.984375 
L 29.296875 69 
L 17.578125 69 
L 17.578125 -6.203125 
L 29.296875 -6.203125 
L 29.296875 -13.1875 
L 8.59375 -13.1875 
z
" id="DejaVuSans-91"/>
       <path d="M 30.421875 75.984375 
L 30.421875 -13.1875 
L 9.71875 -13.1875 
L 9.71875 -6.203125 
L 21.390625 -6.203125 
L 21.390625 69 
L 9.71875 69 
L 9.71875 75.984375 
z
" id="DejaVuSans-93"/>
      </defs>
      <use xlink:href="#DejaVuSans-65"/>
      <use x="68.408203" xlink:href="#DejaVuSans-110"/>
      <use x="131.787109" xlink:href="#DejaVuSans-103"/>
      <use x="195.263672" xlink:href="#DejaVuSans-108"/>
      <use x="223.046875" xlink:href="#DejaVuSans-101"/>
      <use x="284.570312" xlink:href="#DejaVuSans-32"/>
      <use x="316.357422" xlink:href="#DejaVuSans-91"/>
      <use x="355.371094" xlink:href="#DejaVuSans-114"/>
      <use x="396.484375" xlink:href="#DejaVuSans-97"/>
      <use x="457.763672" xlink:href="#DejaVuSans-100"/>
      <use x="521.240234" xlink:href="#DejaVuSans-93"/>
     </g>
    </g>
   </g>
  </g>
  <g id="axes_2">
   <g id="patch_8">
    <path d="M 47.63 197.733333 
L 450 197.733333 
L 450 132.786667 
L 47.63 132.786667 
z
" style="fill:#ffffff;"/>
   </g>
   <g id="matplotlib.axis_3">
    <g id="xtick_7">
     <g id="line2d_22">
      <path clip-path="url(#p3988e6cf74)" d="M 65.919545 197.733333 
L 65.919545 132.786667 
" style="fill:none;stroke:#b0b0b0;stroke-linecap:square;stroke-width:0.8;"/>
     </g>
     <g id="line2d_23">
      <g>
       <use style="stroke:#000000;stroke-width:0.8;" x="65.919545" xlink:href="#mcacffd8f90" y="197.733333"/>
      </g>
     </g>
    </g>
    <g id="xtick_8">
     <g id="line2d_24">
      <path clip-path="url(#p3988e6cf74)" d="M 139.816699 197.733333 
L 139.816699 132.786667 
" style="fill:none;stroke:#b0b0b0;stroke-linecap:square;stroke-width:0.8;"/>
     </g>
     <g id="line2d_25">
      <g>
       <use style="stroke:#000000;stroke-width:0.8;" x="139.816699" xlink:href="#mcacffd8f90" y="197.733333"/>
      </g>
     </g>
    </g>
    <g id="xtick_9">
     <g id="line2d_26">
      <path clip-path="url(#p3988e6cf74)" d="M 213.713852 197.733333 
L 213.713852 132.786667 
" style="fill:none;stroke:#b0b0b0;stroke-linecap:square;stroke-width:0.8;"/>
     </g>
     <g id="line2d_27">
      <g>
       <use style="stroke:#000000;stroke-width:0.8;" x="213.713852" xlink:href="#mcacffd8f90" y="197.733333"/>
      </g>
     </g>
    </g>
    <g id="xtick_10">
     <g id="line2d_28">
      <path clip-path="url(#p3988e6cf74)" d="M 287.611006 197.733333 
L 287.611006 132.786667 
" style="fill:none;stroke:#b0b0b0;stroke-linecap:square;stroke-width:0.8;"/>
     </g>
     <g id="line2d_29">
      <g>
       <use style="stroke:#000000;stroke-width:0.8;" x="287.611006" xlink:href="#mcacffd8f90" y="197.733333"/>
      </g>
     </g>
    </g>
    <g id="xtick_11">
     <g id="line2d_30">
      <path clip-path="url(#p3988e6cf74)" d="M 361.508159 197.733333 
L 361.508159 132.786667 
" style="fill:none;stroke:#b0b0b0;stroke-linecap:square;stroke-width:0.8;"/>
     </g>
     <g id="line2d_31">
      <g>
       <use style="stroke:#000000;stroke-width:0.8;" x="361.508159" xlink:href="#mcacffd8f90" y="197.733333"/>
      </g>
     </g>
    </g>
    <g id="xtick_12">
     <g id="line2d_32">
      <path clip-path="url(#p3988e6cf74)" d="M 435.405312 197.733333 
L 435.405312 132.786667 
" style="fill:none;stroke:#b0b0b0;stroke-linecap:square;stroke-width:0.8;"/>
     </g>
     <g id="line2d_33">
      <g>
       <use style="stroke:#000000;stroke-width:0.8;" x="435.405312" xlink:href="#mcacffd8f90" y="197.733333"/>
      </g>
     </g>
    </g>
    <g id="text_8">
     <!-- Sample -->
     <g transform="translate(230.066563 209.331771)scale(0.1 -0.1)">
      <use xlink:href="#DejaVuSans-83"/>
      <use x="63.476562" xlink:href="#DejaVuSans-97"/>
      <use x="124.755859" xlink:href="#DejaVuSans-109"/>
      <use x="222.167969" xlink:href="#DejaVuSans-112"/>
      <use x="285.644531" xlink:href="#DejaVuSans-108"/>
      <use x="313.427734" xlink:href="#DejaVuSans-101"/>
     </g>
    </g>
   </g>
   <g id="matplotlib.axis_4">
    <g id="ytick_4">
     <g id="line2d_34">
      <path clip-path="url(#p3988e6cf74)" d="M 47.63 194.781212 
L 450 194.781212 
" style="fill:none;stroke:#b0b0b0;stroke-linecap:square;stroke-width:0.8;"/>
     </g>
     <g id="line2d_35">
      <g>
       <use style="stroke:#000000;stroke-width:0.8;" x="47.63" xlink:href="#m9753063fd5" y="194.781212"/>
      </g>
     </g>
     <g id="text_9">
      <!-- −1 -->
      <g transform="translate(25.887813 198.580431)scale(0.1 -0.1)">
       <defs>
        <path d="M 10.59375 35.5 
L 73.1875 35.5 
L 73.1875 27.203125 
L 10.59375 27.203125 
z
" id="DejaVuSans-8722"/>
        <path d="M 12.40625 8.296875 
L 28.515625 8.296875 
L 28.515625 63.921875 
L 10.984375 60.40625 
L 10.984375 69.390625 
L 28.421875 72.90625 
L 38.28125 72.90625 
L 38.28125 8.296875 
L 54.390625 8.296875 
L 54.390625 0 
L 12.40625 0 
z
" id="DejaVuSans-49"/>
       </defs>
       <use xlink:href="#DejaVuSans-8722"/>
       <use x="83.789062" xlink:href="#DejaVuSans-49"/>
      </g>
     </g>
    </g>
    <g id="ytick_5">
     <g id="line2d_36">
      <path clip-path="url(#p3988e6cf74)" d="M 47.63 165.26 
L 450 165.26 
" style="fill:none;stroke:#b0b0b0;stroke-linecap:square;stroke-width:0.8;"/>
     </g>
     <g id="line2d_37">
      <g>
       <use style="stroke:#000000;stroke-width:0.8;" x="47.63" xlink:href="#m9753063fd5" y="165.26"/>
      </g>
     </g>
     <g id="text_10">
      <!-- 0 -->
      <g transform="translate(34.2675 169.059219)scale(0.1 -0.1)">
       <use xlink:href="#DejaVuSans-48"/>
      </g>
     </g>
    </g>
    <g id="ytick_6">
     <g id="line2d_38">
      <path clip-path="url(#p3988e6cf74)" d="M 47.63 135.738788 
L 450 135.738788 
" style="fill:none;stroke:#b0b0b0;stroke-linecap:square;stroke-width:0.8;"/>
     </g>
     <g id="line2d_39">
      <g>
       <use style="stroke:#000000;stroke-width:0.8;" x="47.63" xlink:href="#m9753063fd5" y="135.738788"/>
      </g>
     </g>
     <g id="text_11">
      <!-- 1 -->
      <g transform="translate(34.2675 139.538007)scale(0.1 -0.1)">
       <use xlink:href="#DejaVuSans-49"/>
      </g>
     </g>
    </g>
    <g id="text_12">
     <!-- Amplitude -->
     <g transform="translate(19.808125 190.882656)rotate(-90)scale(0.1 -0.1)">
      <use xlink:href="#DejaVuSans-65"/>
      <use x="68.408203" xlink:href="#DejaVuSans-109"/>
      <use x="165.820312" xlink:href="#DejaVuSans-112"/>
      <use x="229.296875" xlink:href="#DejaVuSans-108"/>
      <use x="257.080078" xlink:href="#DejaVuSans-105"/>
      <use x="284.863281" xlink:href="#DejaVuSans-116"/>
      <use x="324.072266" xlink:href="#DejaVuSans-117"/>
      <use x="387.451172" xlink:href="#DejaVuSans-100"/>
      <use x="450.927734" xlink:href="#DejaVuSans-101"/>
     </g>
    </g>
   </g>
   <g id="line2d_40">
    <path clip-path="url(#p3988e6cf74)" d="M 65.919545 165.26 
L 69.614403 163.406348 
L 73.309261 161.560011 
L 77.004118 159.728277 
L 80.698976 157.918373 
L 84.393834 156.137444 
L 88.088691 154.392517 
L 91.783549 152.690479 
L 95.478407 151.038048 
L 99.173264 149.441743 
L 102.868122 147.907867 
L 106.56298 146.442471 
L 110.257837 145.051339 
L 113.952695 143.739963 
L 117.647553 142.513515 
L 121.34241 141.376837 
L 125.037268 140.334416 
L 128.732126 139.390365 
L 132.426983 138.548408 
L 136.121841 137.811871 
L 139.816699 137.183658 
L 143.511556 136.666251 
L 147.206414 136.26169 
L 150.901272 135.971571 
L 154.596129 135.797041 
L 158.290987 135.738788 
L 161.985845 135.797041 
L 165.680702 135.971571 
L 169.37556 136.26169 
L 173.070418 136.666251 
L 176.765275 137.183658 
L 180.460133 137.811871 
L 184.154991 138.548408 
L 187.849848 139.390365 
L 191.544706 140.334416 
L 195.239564 141.376837 
L 198.934421 142.513515 
L 202.629279 143.739963 
L 206.324137 145.051339 
L 210.018994 146.442471 
L 213.713852 147.907867 
L 217.40871 149.441743 
L 221.103567 151.038048 
L 224.798425 152.690479 
L 228.493283 154.392517 
L 232.18814 156.137444 
L 235.882998 157.918373 
L 239.577856 159.728277 
L 243.272713 161.560011 
L 246.967571 163.406348 
L 250.662429 165.26 
L 254.357287 167.113652 
L 258.052144 168.959989 
L 261.747002 170.791723 
L 265.44186 172.601627 
L 269.136717 174.382556 
L 272.831575 176.127483 
L 276.526433 177.829521 
L 280.22129 179.481952 
L 283.916148 181.078257 
L 287.611006 182.612133 
L 291.305863 184.077529 
L 295.000721 185.468661 
L 298.695579 186.780037 
L 302.390436 188.006485 
L 306.085294 189.143163 
L 309.780152 190.185584 
L 313.475009 191.129635 
L 317.169867 191.971592 
L 320.864725 192.708129 
L 324.559582 193.336342 
L 328.25444 193.853749 
L 331.949298 194.25831 
L 335.644155 194.548429 
L 339.339013 194.722959 
L 343.033871 194.781212 
L 346.728728 194.722959 
L 350.423586 194.548429 
L 354.118444 194.25831 
L 357.813301 193.853749 
L 361.508159 193.336342 
L 365.203017 192.708129 
L 368.897874 191.971592 
L 372.592732 191.129635 
L 376.28759 190.185584 
L 379.982447 189.143163 
L 383.677305 188.006485 
L 387.372163 186.780037 
L 391.06702 185.468661 
L 394.761878 184.077529 
L 398.456736 182.612133 
L 402.151593 181.078257 
L 405.846451 179.481952 
L 409.541309 177.829521 
L 413.236166 176.127483 
L 416.931024 174.382556 
L 420.625882 172.601627 
L 424.320739 170.791723 
L 428.015597 168.959989 
L 431.710455 167.113652 
" style="fill:none;stroke:#1f77b4;stroke-linecap:square;stroke-width:1.5;"/>
    <g clip-path="url(#p3988e6cf74)">
     <use style="fill:#1f77b4;stroke:#1f77b4;" x="65.919545" xlink:href="#m3f023cc95f" y="165.26"/>
     <use style="fill:#1f77b4;stroke:#1f77b4;" x="69.614403" xlink:href="#m3f023cc95f" y="163.406348"/>
     <use style="fill:#1f77b4;stroke:#1f77b4;" x="73.309261" xlink:href="#m3f023cc95f" y="161.560011"/>
     <use style="fill:#1f77b4;stroke:#1f77b4;" x="77.004118" xlink:href="#m3f023cc95f" y="159.728277"/>
     <use style="fill:#1f77b4;stroke:#1f77b4;" x="80.698976" xlink:href="#m3f023cc95f" y="157.918373"/>
     <use style="fill:#1f77b4;stroke:#1f77b4;" x="84.393834" xlink:href="#m3f023cc95f" y="156.137444"/>
     <use style="fill:#1f77b4;stroke:#1f77b4;" x="88.088691" xlink:href="#m3f023cc95f" y="154.392517"/>
     <use style="fill:#1f77b4;stroke:#1f77b4;" x="91.783549" xlink:href="#m3f023cc95f" y="152.690479"/>
     <use style="fill:#1f77b4;stroke:#1f77b4;" x="95.478407" xlink:href="#m3f023cc95f" y="151.038048"/>
     <use style="fill:#1f77b4;stroke:#1f77b4;" x="99.173264" xlink:href="#m3f023cc95f" y="149.441743"/>
     <use style="fill:#1f77b4;stroke:#1f77b4;" x="102.868122" xlink:href="#m3f023cc95f" y="147.907867"/>
     <use style="fill:#1f77b4;stroke:#1f77b4;" x="106.56298" xlink:href="#m3f023cc95f" y="146.442471"/>
     <use style="fill:#1f77b4;stroke:#1f77b4;" x="110.257837" xlink:href="#m3f023cc95f" y="145.051339"/>
     <use style="fill:#1f77b4;stroke:#1f77b4;" x="113.952695" xlink:href="#m3f023cc95f" y="143.739963"/>
     <use style="fill:#1f77b4;stroke:#1f77b4;" x="117.647553" xlink:href="#m3f023cc95f" y="142.513515"/>
     <use style="fill:#1f77b4;stroke:#1f77b4;" x="121.34241" xlink:href="#m3f023cc95f" y="141.376837"/>
     <use style="fill:#1f77b4;stroke:#1f77b4;" x="125.037268" xlink:href="#m3f023cc95f" y="140.334416"/>
     <use style="fill:#1f77b4;stroke:#1f77b4;" x="128.732126" xlink:href="#m3f023cc95f" y="139.390365"/>
     <use style="fill:#1f77b4;stroke:#1f77b4;" x="132.426983" xlink:href="#m3f023cc95f" y="138.548408"/>
     <use style="fill:#1f77b4;stroke:#1f77b4;" x="136.121841" xlink:href="#m3f023cc95f" y="137.811871"/>
     <use style="fill:#1f77b4;stroke:#1f77b4;" x="139.816699" xlink:href="#m3f023cc95f" y="137.183658"/>
     <use style="fill:#1f77b4;stroke:#1f77b4;" x="143.511556" xlink:href="#m3f023cc95f" y="136.666251"/>
     <use style="fill:#1f77b4;stroke:#1f77b4;" x="147.206414" xlink:href="#m3f023cc95f" y="136.26169"/>
     <use style="fill:#1f77b4;stroke:#1f77b4;" x="150.901272" xlink:href="#m3f023cc95f" y="135.971571"/>
     <use style="fill:#1f77b4;stroke:#1f77b4;" x="154.596129" xlink:href="#m3f023cc95f" y="135.797041"/>
     <use style="fill:#1f77b4;stroke:#1f77b4;" x="158.290987" xlink:href="#m3f023cc95f" y="135.738788"/>
     <use style="fill:#1f77b4;stroke:#1f77b4;" x="161.985845" xlink:href="#m3f023cc95f" y="135.797041"/>
     <use style="fill:#1f77b4;stroke:#1f77b4;" x="165.680702" xlink:href="#m3f023cc95f" y="135.971571"/>
     <use style="fill:#1f77b4;stroke:#1f77b4;" x="169.37556" xlink:href="#m3f023cc95f" y="136.26169"/>
     <use style="fill:#1f77b4;stroke:#1f77b4;" x="173.070418" xlink:href="#m3f023cc95f" y="136.666251"/>
     <use style="fill:#1f77b4;stroke:#1f77b4;" x="176.765275" xlink:href="#m3f023cc95f" y="137.183658"/>
     <use style="fill:#1f77b4;stroke:#1f77b4;" x="180.460133" xlink:href="#m3f023cc95f" y="137.811871"/>
     <use style="fill:#1f77b4;stroke:#1f77b4;" x="184.154991" xlink:href="#m3f023cc95f" y="138.548408"/>
     <use style="fill:#1f77b4;stroke:#1f77b4;" x="187.849848" xlink:href="#m3f023cc95f" y="139.390365"/>
     <use style="fill:#1f77b4;stroke:#1f77b4;" x="191.544706" xlink:href="#m3f023cc95f" y="140.334416"/>
     <use style="fill:#1f77b4;stroke:#1f77b4;" x="195.239564" xlink:href="#m3f023cc95f" y="141.376837"/>
     <use style="fill:#1f77b4;stroke:#1f77b4;" x="198.934421" xlink:href="#m3f023cc95f" y="142.513515"/>
     <use style="fill:#1f77b4;stroke:#1f77b4;" x="202.629279" xlink:href="#m3f023cc95f" y="143.739963"/>
     <use style="fill:#1f77b4;stroke:#1f77b4;" x="206.324137" xlink:href="#m3f023cc95f" y="145.051339"/>
     <use style="fill:#1f77b4;stroke:#1f77b4;" x="210.018994" xlink:href="#m3f023cc95f" y="146.442471"/>
     <use style="fill:#1f77b4;stroke:#1f77b4;" x="213.713852" xlink:href="#m3f023cc95f" y="147.907867"/>
     <use style="fill:#1f77b4;stroke:#1f77b4;" x="217.40871" xlink:href="#m3f023cc95f" y="149.441743"/>
     <use style="fill:#1f77b4;stroke:#1f77b4;" x="221.103567" xlink:href="#m3f023cc95f" y="151.038048"/>
     <use style="fill:#1f77b4;stroke:#1f77b4;" x="224.798425" xlink:href="#m3f023cc95f" y="152.690479"/>
     <use style="fill:#1f77b4;stroke:#1f77b4;" x="228.493283" xlink:href="#m3f023cc95f" y="154.392517"/>
     <use style="fill:#1f77b4;stroke:#1f77b4;" x="232.18814" xlink:href="#m3f023cc95f" y="156.137444"/>
     <use style="fill:#1f77b4;stroke:#1f77b4;" x="235.882998" xlink:href="#m3f023cc95f" y="157.918373"/>
     <use style="fill:#1f77b4;stroke:#1f77b4;" x="239.577856" xlink:href="#m3f023cc95f" y="159.728277"/>
     <use style="fill:#1f77b4;stroke:#1f77b4;" x="243.272713" xlink:href="#m3f023cc95f" y="161.560011"/>
     <use style="fill:#1f77b4;stroke:#1f77b4;" x="246.967571" xlink:href="#m3f023cc95f" y="163.406348"/>
     <use style="fill:#1f77b4;stroke:#1f77b4;" x="250.662429" xlink:href="#m3f023cc95f" y="165.26"/>
     <use style="fill:#1f77b4;stroke:#1f77b4;" x="254.357287" xlink:href="#m3f023cc95f" y="167.113652"/>
     <use style="fill:#1f77b4;stroke:#1f77b4;" x="258.052144" xlink:href="#m3f023cc95f" y="168.959989"/>
     <use style="fill:#1f77b4;stroke:#1f77b4;" x="261.747002" xlink:href="#m3f023cc95f" y="170.791723"/>
     <use style="fill:#1f77b4;stroke:#1f77b4;" x="265.44186" xlink:href="#m3f023cc95f" y="172.601627"/>
     <use style="fill:#1f77b4;stroke:#1f77b4;" x="269.136717" xlink:href="#m3f023cc95f" y="174.382556"/>
     <use style="fill:#1f77b4;stroke:#1f77b4;" x="272.831575" xlink:href="#m3f023cc95f" y="176.127483"/>
     <use style="fill:#1f77b4;stroke:#1f77b4;" x="276.526433" xlink:href="#m3f023cc95f" y="177.829521"/>
     <use style="fill:#1f77b4;stroke:#1f77b4;" x="280.22129" xlink:href="#m3f023cc95f" y="179.481952"/>
     <use style="fill:#1f77b4;stroke:#1f77b4;" x="283.916148" xlink:href="#m3f023cc95f" y="181.078257"/>
     <use style="fill:#1f77b4;stroke:#1f77b4;" x="287.611006" xlink:href="#m3f023cc95f" y="182.612133"/>
     <use style="fill:#1f77b4;stroke:#1f77b4;" x="291.305863" xlink:href="#m3f023cc95f" y="184.077529"/>
     <use style="fill:#1f77b4;stroke:#1f77b4;" x="295.000721" xlink:href="#m3f023cc95f" y="185.468661"/>
     <use style="fill:#1f77b4;stroke:#1f77b4;" x="298.695579" xlink:href="#m3f023cc95f" y="186.780037"/>
     <use style="fill:#1f77b4;stroke:#1f77b4;" x="302.390436" xlink:href="#m3f023cc95f" y="188.006485"/>
     <use style="fill:#1f77b4;stroke:#1f77b4;" x="306.085294" xlink:href="#m3f023cc95f" y="189.143163"/>
     <use style="fill:#1f77b4;stroke:#1f77b4;" x="309.780152" xlink:href="#m3f023cc95f" y="190.185584"/>
     <use style="fill:#1f77b4;stroke:#1f77b4;" x="313.475009" xlink:href="#m3f023cc95f" y="191.129635"/>
     <use style="fill:#1f77b4;stroke:#1f77b4;" x="317.169867" xlink:href="#m3f023cc95f" y="191.971592"/>
     <use style="fill:#1f77b4;stroke:#1f77b4;" x="320.864725" xlink:href="#m3f023cc95f" y="192.708129"/>
     <use style="fill:#1f77b4;stroke:#1f77b4;" x="324.559582" xlink:href="#m3f023cc95f" y="193.336342"/>
     <use style="fill:#1f77b4;stroke:#1f77b4;" x="328.25444" xlink:href="#m3f023cc95f" y="193.853749"/>
     <use style="fill:#1f77b4;stroke:#1f77b4;" x="331.949298" xlink:href="#m3f023cc95f" y="194.25831"/>
     <use style="fill:#1f77b4;stroke:#1f77b4;" x="335.644155" xlink:href="#m3f023cc95f" y="194.548429"/>
     <use style="fill:#1f77b4;stroke:#1f77b4;" x="339.339013" xlink:href="#m3f023cc95f" y="194.722959"/>
     <use style="fill:#1f77b4;stroke:#1f77b4;" x="343.033871" xlink:href="#m3f023cc95f" y="194.781212"/>
     <use style="fill:#1f77b4;stroke:#1f77b4;" x="346.728728" xlink:href="#m3f023cc95f" y="194.722959"/>
     <use style="fill:#1f77b4;stroke:#1f77b4;" x="350.423586" xlink:href="#m3f023cc95f" y="194.548429"/>
     <use style="fill:#1f77b4;stroke:#1f77b4;" x="354.118444" xlink:href="#m3f023cc95f" y="194.25831"/>
     <use style="fill:#1f77b4;stroke:#1f77b4;" x="357.813301" xlink:href="#m3f023cc95f" y="193.853749"/>
     <use style="fill:#1f77b4;stroke:#1f77b4;" x="361.508159" xlink:href="#m3f023cc95f" y="193.336342"/>
     <use style="fill:#1f77b4;stroke:#1f77b4;" x="365.203017" xlink:href="#m3f023cc95f" y="192.708129"/>
     <use style="fill:#1f77b4;stroke:#1f77b4;" x="368.897874" xlink:href="#m3f023cc95f" y="191.971592"/>
     <use style="fill:#1f77b4;stroke:#1f77b4;" x="372.592732" xlink:href="#m3f023cc95f" y="191.129635"/>
     <use style="fill:#1f77b4;stroke:#1f77b4;" x="376.28759" xlink:href="#m3f023cc95f" y="190.185584"/>
     <use style="fill:#1f77b4;stroke:#1f77b4;" x="379.982447" xlink:href="#m3f023cc95f" y="189.143163"/>
     <use style="fill:#1f77b4;stroke:#1f77b4;" x="383.677305" xlink:href="#m3f023cc95f" y="188.006485"/>
     <use style="fill:#1f77b4;stroke:#1f77b4;" x="387.372163" xlink:href="#m3f023cc95f" y="186.780037"/>
     <use style="fill:#1f77b4;stroke:#1f77b4;" x="391.06702" xlink:href="#m3f023cc95f" y="185.468661"/>
     <use style="fill:#1f77b4;stroke:#1f77b4;" x="394.761878" xlink:href="#m3f023cc95f" y="184.077529"/>
     <use style="fill:#1f77b4;stroke:#1f77b4;" x="398.456736" xlink:href="#m3f023cc95f" y="182.612133"/>
     <use style="fill:#1f77b4;stroke:#1f77b4;" x="402.151593" xlink:href="#m3f023cc95f" y="181.078257"/>
     <use style="fill:#1f77b4;stroke:#1f77b4;" x="405.846451" xlink:href="#m3f023cc95f" y="179.481952"/>
     <use style="fill:#1f77b4;stroke:#1f77b4;" x="409.541309" xlink:href="#m3f023cc95f" y="177.829521"/>
     <use style="fill:#1f77b4;stroke:#1f77b4;" x="413.236166" xlink:href="#m3f023cc95f" y="176.127483"/>
     <use style="fill:#1f77b4;stroke:#1f77b4;" x="416.931024" xlink:href="#m3f023cc95f" y="174.382556"/>
     <use style="fill:#1f77b4;stroke:#1f77b4;" x="420.625882" xlink:href="#m3f023cc95f" y="172.601627"/>
     <use style="fill:#1f77b4;stroke:#1f77b4;" x="424.320739" xlink:href="#m3f023cc95f" y="170.791723"/>
     <use style="fill:#1f77b4;stroke:#1f77b4;" x="428.015597" xlink:href="#m3f023cc95f" y="168.959989"/>
     <use style="fill:#1f77b4;stroke:#1f77b4;" x="431.710455" xlink:href="#m3f023cc95f" y="167.113652"/>
    </g>
   </g>
   <g id="line2d_41">
    <path clip-path="url(#p3988e6cf74)" d="M 65.919545 135.738788 
L 69.614403 135.797041 
L 73.309261 135.971571 
L 77.004118 136.26169 
L 80.698976 136.666251 
L 84.393834 137.183658 
L 88.088691 137.811871 
L 91.783549 138.548408 
L 95.478407 139.390365 
L 99.173264 140.334416 
L 102.868122 141.376837 
L 106.56298 142.513515 
L 110.257837 143.739963 
L 113.952695 145.051339 
L 117.647553 146.442471 
L 121.34241 147.907867 
L 125.037268 149.441743 
L 128.732126 151.038048 
L 132.426983 152.690479 
L 136.121841 154.392517 
L 139.816699 156.137444 
L 143.511556 157.918373 
L 147.206414 159.728277 
L 150.901272 161.560011 
L 154.596129 163.406348 
L 158.290987 165.26 
L 161.985845 167.113652 
L 165.680702 168.959989 
L 169.37556 170.791723 
L 173.070418 172.601627 
L 176.765275 174.382556 
L 180.460133 176.127483 
L 184.154991 177.829521 
L 187.849848 179.481952 
L 191.544706 181.078257 
L 195.239564 182.612133 
L 198.934421 184.077529 
L 202.629279 185.468661 
L 206.324137 186.780037 
L 210.018994 188.006485 
L 213.713852 189.143163 
L 217.40871 190.185584 
L 221.103567 191.129635 
L 224.798425 191.971592 
L 228.493283 192.708129 
L 232.18814 193.336342 
L 235.882998 193.853749 
L 239.577856 194.25831 
L 243.272713 194.548429 
L 246.967571 194.722959 
L 250.662429 194.781212 
L 254.357287 194.722959 
L 258.052144 194.548429 
L 261.747002 194.25831 
L 265.44186 193.853749 
L 269.136717 193.336342 
L 272.831575 192.708129 
L 276.526433 191.971592 
L 280.22129 191.129635 
L 283.916148 190.185584 
L 287.611006 189.143163 
L 291.305863 188.006485 
L 295.000721 186.780037 
L 298.695579 185.468661 
L 302.390436 184.077529 
L 306.085294 182.612133 
L 309.780152 181.078257 
L 313.475009 179.481952 
L 317.169867 177.829521 
L 320.864725 176.127483 
L 324.559582 174.382556 
L 328.25444 172.601627 
L 331.949298 170.791723 
L 335.644155 168.959989 
L 339.339013 167.113652 
L 343.033871 165.26 
L 346.728728 163.406348 
L 350.423586 161.560011 
L 354.118444 159.728277 
L 357.813301 157.918373 
L 361.508159 156.137444 
L 365.203017 154.392517 
L 368.897874 152.690479 
L 372.592732 151.038048 
L 376.28759 149.441743 
L 379.982447 147.907867 
L 383.677305 146.442471 
L 387.372163 145.051339 
L 391.06702 143.739963 
L 394.761878 142.513515 
L 398.456736 141.376837 
L 402.151593 140.334416 
L 405.846451 139.390365 
L 409.541309 138.548408 
L 413.236166 137.811871 
L 416.931024 137.183658 
L 420.625882 136.666251 
L 424.320739 136.26169 
L 428.015597 135.971571 
L 431.710455 135.797041 
" style="fill:none;stroke:#ff7f0e;stroke-linecap:square;stroke-width:1.5;"/>
    <defs>
     <path d="M 0 1.5 
C 0.397805 1.5 0.77937 1.341951 1.06066 1.06066 
C 1.341951 0.77937 1.5 0.397805 1.5 0 
C 1.5 -0.397805 1.341951 -0.77937 1.06066 -1.06066 
C 0.77937 -1.341951 0.397805 -1.5 0 -1.5 
C -0.397805 -1.5 -0.77937 -1.341951 -1.06066 -1.06066 
C -1.341951 -0.77937 -1.5 -0.397805 -1.5 0 
C -1.5 0.397805 -1.341951 0.77937 -1.06066 1.06066 
C -0.77937 1.341951 -0.397805 1.5 0 1.5 
z
" id="m523d55a4b5" style="stroke:#ff7f0e;"/>
    </defs>
    <g clip-path="url(#p3988e6cf74)">
     <use style="fill:#ff7f0e;stroke:#ff7f0e;" x="65.919545" xlink:href="#m523d55a4b5" y="135.738788"/>
     <use style="fill:#ff7f0e;stroke:#ff7f0e;" x="69.614403" xlink:href="#m523d55a4b5" y="135.797041"/>
     <use style="fill:#ff7f0e;stroke:#ff7f0e;" x="73.309261" xlink:href="#m523d55a4b5" y="135.971571"/>
     <use style="fill:#ff7f0e;stroke:#ff7f0e;" x="77.004118" xlink:href="#m523d55a4b5" y="136.26169"/>
     <use style="fill:#ff7f0e;stroke:#ff7f0e;" x="80.698976" xlink:href="#m523d55a4b5" y="136.666251"/>
     <use style="fill:#ff7f0e;stroke:#ff7f0e;" x="84.393834" xlink:href="#m523d55a4b5" y="137.183658"/>
     <use style="fill:#ff7f0e;stroke:#ff7f0e;" x="88.088691" xlink:href="#m523d55a4b5" y="137.811871"/>
     <use style="fill:#ff7f0e;stroke:#ff7f0e;" x="91.783549" xlink:href="#m523d55a4b5" y="138.548408"/>
     <use style="fill:#ff7f0e;stroke:#ff7f0e;" x="95.478407" xlink:href="#m523d55a4b5" y="139.390365"/>
     <use style="fill:#ff7f0e;stroke:#ff7f0e;" x="99.173264" xlink:href="#m523d55a4b5" y="140.334416"/>
     <use style="fill:#ff7f0e;stroke:#ff7f0e;" x="102.868122" xlink:href="#m523d55a4b5" y="141.376837"/>
     <use style="fill:#ff7f0e;stroke:#ff7f0e;" x="106.56298" xlink:href="#m523d55a4b5" y="142.513515"/>
     <use style="fill:#ff7f0e;stroke:#ff7f0e;" x="110.257837" xlink:href="#m523d55a4b5" y="143.739963"/>
     <use style="fill:#ff7f0e;stroke:#ff7f0e;" x="113.952695" xlink:href="#m523d55a4b5" y="145.051339"/>
     <use style="fill:#ff7f0e;stroke:#ff7f0e;" x="117.647553" xlink:href="#m523d55a4b5" y="146.442471"/>
     <use style="fill:#ff7f0e;stroke:#ff7f0e;" x="121.34241" xlink:href="#m523d55a4b5" y="147.907867"/>
     <use style="fill:#ff7f0e;stroke:#ff7f0e;" x="125.037268" xlink:href="#m523d55a4b5" y="149.441743"/>
     <use style="fill:#ff7f0e;stroke:#ff7f0e;" x="128.732126" xlink:href="#m523d55a4b5" y="151.038048"/>
     <use style="fill:#ff7f0e;stroke:#ff7f0e;" x="132.426983" xlink:href="#m523d55a4b5" y="152.690479"/>
     <use style="fill:#ff7f0e;stroke:#ff7f0e;" x="136.121841" xlink:href="#m523d55a4b5" y="154.392517"/>
     <use style="fill:#ff7f0e;stroke:#ff7f0e;" x="139.816699" xlink:href="#m523d55a4b5" y="156.137444"/>
     <use style="fill:#ff7f0e;stroke:#ff7f0e;" x="143.511556" xlink:href="#m523d55a4b5" y="157.918373"/>
     <use style="fill:#ff7f0e;stroke:#ff7f0e;" x="147.206414" xlink:href="#m523d55a4b5" y="159.728277"/>
     <use style="fill:#ff7f0e;stroke:#ff7f0e;" x="150.901272" xlink:href="#m523d55a4b5" y="161.560011"/>
     <use style="fill:#ff7f0e;stroke:#ff7f0e;" x="154.596129" xlink:href="#m523d55a4b5" y="163.406348"/>
     <use style="fill:#ff7f0e;stroke:#ff7f0e;" x="158.290987" xlink:href="#m523d55a4b5" y="165.26"/>
     <use style="fill:#ff7f0e;stroke:#ff7f0e;" x="161.985845" xlink:href="#m523d55a4b5" y="167.113652"/>
     <use style="fill:#ff7f0e;stroke:#ff7f0e;" x="165.680702" xlink:href="#m523d55a4b5" y="168.959989"/>
     <use style="fill:#ff7f0e;stroke:#ff7f0e;" x="169.37556" xlink:href="#m523d55a4b5" y="170.791723"/>
     <use style="fill:#ff7f0e;stroke:#ff7f0e;" x="173.070418" xlink:href="#m523d55a4b5" y="172.601627"/>
     <use style="fill:#ff7f0e;stroke:#ff7f0e;" x="176.765275" xlink:href="#m523d55a4b5" y="174.382556"/>
     <use style="fill:#ff7f0e;stroke:#ff7f0e;" x="180.460133" xlink:href="#m523d55a4b5" y="176.127483"/>
     <use style="fill:#ff7f0e;stroke:#ff7f0e;" x="184.154991" xlink:href="#m523d55a4b5" y="177.829521"/>
     <use style="fill:#ff7f0e;stroke:#ff7f0e;" x="187.849848" xlink:href="#m523d55a4b5" y="179.481952"/>
     <use style="fill:#ff7f0e;stroke:#ff7f0e;" x="191.544706" xlink:href="#m523d55a4b5" y="181.078257"/>
     <use style="fill:#ff7f0e;stroke:#ff7f0e;" x="195.239564" xlink:href="#m523d55a4b5" y="182.612133"/>
     <use style="fill:#ff7f0e;stroke:#ff7f0e;" x="198.934421" xlink:href="#m523d55a4b5" y="184.077529"/>
     <use style="fill:#ff7f0e;stroke:#ff7f0e;" x="202.629279" xlink:href="#m523d55a4b5" y="185.468661"/>
     <use style="fill:#ff7f0e;stroke:#ff7f0e;" x="206.324137" xlink:href="#m523d55a4b5" y="186.780037"/>
     <use style="fill:#ff7f0e;stroke:#ff7f0e;" x="210.018994" xlink:href="#m523d55a4b5" y="188.006485"/>
     <use style="fill:#ff7f0e;stroke:#ff7f0e;" x="213.713852" xlink:href="#m523d55a4b5" y="189.143163"/>
     <use style="fill:#ff7f0e;stroke:#ff7f0e;" x="217.40871" xlink:href="#m523d55a4b5" y="190.185584"/>
     <use style="fill:#ff7f0e;stroke:#ff7f0e;" x="221.103567" xlink:href="#m523d55a4b5" y="191.129635"/>
     <use style="fill:#ff7f0e;stroke:#ff7f0e;" x="224.798425" xlink:href="#m523d55a4b5" y="191.971592"/>
     <use style="fill:#ff7f0e;stroke:#ff7f0e;" x="228.493283" xlink:href="#m523d55a4b5" y="192.708129"/>
     <use style="fill:#ff7f0e;stroke:#ff7f0e;" x="232.18814" xlink:href="#m523d55a4b5" y="193.336342"/>
     <use style="fill:#ff7f0e;stroke:#ff7f0e;" x="235.882998" xlink:href="#m523d55a4b5" y="193.853749"/>
     <use style="fill:#ff7f0e;stroke:#ff7f0e;" x="239.577856" xlink:href="#m523d55a4b5" y="194.25831"/>
     <use style="fill:#ff7f0e;stroke:#ff7f0e;" x="243.272713" xlink:href="#m523d55a4b5" y="194.548429"/>
     <use style="fill:#ff7f0e;stroke:#ff7f0e;" x="246.967571" xlink:href="#m523d55a4b5" y="194.722959"/>
     <use style="fill:#ff7f0e;stroke:#ff7f0e;" x="250.662429" xlink:href="#m523d55a4b5" y="194.781212"/>
     <use style="fill:#ff7f0e;stroke:#ff7f0e;" x="254.357287" xlink:href="#m523d55a4b5" y="194.722959"/>
     <use style="fill:#ff7f0e;stroke:#ff7f0e;" x="258.052144" xlink:href="#m523d55a4b5" y="194.548429"/>
     <use style="fill:#ff7f0e;stroke:#ff7f0e;" x="261.747002" xlink:href="#m523d55a4b5" y="194.25831"/>
     <use style="fill:#ff7f0e;stroke:#ff7f0e;" x="265.44186" xlink:href="#m523d55a4b5" y="193.853749"/>
     <use style="fill:#ff7f0e;stroke:#ff7f0e;" x="269.136717" xlink:href="#m523d55a4b5" y="193.336342"/>
     <use style="fill:#ff7f0e;stroke:#ff7f0e;" x="272.831575" xlink:href="#m523d55a4b5" y="192.708129"/>
     <use style="fill:#ff7f0e;stroke:#ff7f0e;" x="276.526433" xlink:href="#m523d55a4b5" y="191.971592"/>
     <use style="fill:#ff7f0e;stroke:#ff7f0e;" x="280.22129" xlink:href="#m523d55a4b5" y="191.129635"/>
     <use style="fill:#ff7f0e;stroke:#ff7f0e;" x="283.916148" xlink:href="#m523d55a4b5" y="190.185584"/>
     <use style="fill:#ff7f0e;stroke:#ff7f0e;" x="287.611006" xlink:href="#m523d55a4b5" y="189.143163"/>
     <use style="fill:#ff7f0e;stroke:#ff7f0e;" x="291.305863" xlink:href="#m523d55a4b5" y="188.006485"/>
     <use style="fill:#ff7f0e;stroke:#ff7f0e;" x="295.000721" xlink:href="#m523d55a4b5" y="186.780037"/>
     <use style="fill:#ff7f0e;stroke:#ff7f0e;" x="298.695579" xlink:href="#m523d55a4b5" y="185.468661"/>
     <use style="fill:#ff7f0e;stroke:#ff7f0e;" x="302.390436" xlink:href="#m523d55a4b5" y="184.077529"/>
     <use style="fill:#ff7f0e;stroke:#ff7f0e;" x="306.085294" xlink:href="#m523d55a4b5" y="182.612133"/>
     <use style="fill:#ff7f0e;stroke:#ff7f0e;" x="309.780152" xlink:href="#m523d55a4b5" y="181.078257"/>
     <use style="fill:#ff7f0e;stroke:#ff7f0e;" x="313.475009" xlink:href="#m523d55a4b5" y="179.481952"/>
     <use style="fill:#ff7f0e;stroke:#ff7f0e;" x="317.169867" xlink:href="#m523d55a4b5" y="177.829521"/>
     <use style="fill:#ff7f0e;stroke:#ff7f0e;" x="320.864725" xlink:href="#m523d55a4b5" y="176.127483"/>
     <use style="fill:#ff7f0e;stroke:#ff7f0e;" x="324.559582" xlink:href="#m523d55a4b5" y="174.382556"/>
     <use style="fill:#ff7f0e;stroke:#ff7f0e;" x="328.25444" xlink:href="#m523d55a4b5" y="172.601627"/>
     <use style="fill:#ff7f0e;stroke:#ff7f0e;" x="331.949298" xlink:href="#m523d55a4b5" y="170.791723"/>
     <use style="fill:#ff7f0e;stroke:#ff7f0e;" x="335.644155" xlink:href="#m523d55a4b5" y="168.959989"/>
     <use style="fill:#ff7f0e;stroke:#ff7f0e;" x="339.339013" xlink:href="#m523d55a4b5" y="167.113652"/>
     <use style="fill:#ff7f0e;stroke:#ff7f0e;" x="343.033871" xlink:href="#m523d55a4b5" y="165.26"/>
     <use style="fill:#ff7f0e;stroke:#ff7f0e;" x="346.728728" xlink:href="#m523d55a4b5" y="163.406348"/>
     <use style="fill:#ff7f0e;stroke:#ff7f0e;" x="350.423586" xlink:href="#m523d55a4b5" y="161.560011"/>
     <use style="fill:#ff7f0e;stroke:#ff7f0e;" x="354.118444" xlink:href="#m523d55a4b5" y="159.728277"/>
     <use style="fill:#ff7f0e;stroke:#ff7f0e;" x="357.813301" xlink:href="#m523d55a4b5" y="157.918373"/>
     <use style="fill:#ff7f0e;stroke:#ff7f0e;" x="361.508159" xlink:href="#m523d55a4b5" y="156.137444"/>
     <use style="fill:#ff7f0e;stroke:#ff7f0e;" x="365.203017" xlink:href="#m523d55a4b5" y="154.392517"/>
     <use style="fill:#ff7f0e;stroke:#ff7f0e;" x="368.897874" xlink:href="#m523d55a4b5" y="152.690479"/>
     <use style="fill:#ff7f0e;stroke:#ff7f0e;" x="372.592732" xlink:href="#m523d55a4b5" y="151.038048"/>
     <use style="fill:#ff7f0e;stroke:#ff7f0e;" x="376.28759" xlink:href="#m523d55a4b5" y="149.441743"/>
     <use style="fill:#ff7f0e;stroke:#ff7f0e;" x="379.982447" xlink:href="#m523d55a4b5" y="147.907867"/>
     <use style="fill:#ff7f0e;stroke:#ff7f0e;" x="383.677305" xlink:href="#m523d55a4b5" y="146.442471"/>
     <use style="fill:#ff7f0e;stroke:#ff7f0e;" x="387.372163" xlink:href="#m523d55a4b5" y="145.051339"/>
     <use style="fill:#ff7f0e;stroke:#ff7f0e;" x="391.06702" xlink:href="#m523d55a4b5" y="143.739963"/>
     <use style="fill:#ff7f0e;stroke:#ff7f0e;" x="394.761878" xlink:href="#m523d55a4b5" y="142.513515"/>
     <use style="fill:#ff7f0e;stroke:#ff7f0e;" x="398.456736" xlink:href="#m523d55a4b5" y="141.376837"/>
     <use style="fill:#ff7f0e;stroke:#ff7f0e;" x="402.151593" xlink:href="#m523d55a4b5" y="140.334416"/>
     <use style="fill:#ff7f0e;stroke:#ff7f0e;" x="405.846451" xlink:href="#m523d55a4b5" y="139.390365"/>
     <use style="fill:#ff7f0e;stroke:#ff7f0e;" x="409.541309" xlink:href="#m523d55a4b5" y="138.548408"/>
     <use style="fill:#ff7f0e;stroke:#ff7f0e;" x="413.236166" xlink:href="#m523d55a4b5" y="137.811871"/>
     <use style="fill:#ff7f0e;stroke:#ff7f0e;" x="416.931024" xlink:href="#m523d55a4b5" y="137.183658"/>
     <use style="fill:#ff7f0e;stroke:#ff7f0e;" x="420.625882" xlink:href="#m523d55a4b5" y="136.666251"/>
     <use style="fill:#ff7f0e;stroke:#ff7f0e;" x="424.320739" xlink:href="#m523d55a4b5" y="136.26169"/>
     <use style="fill:#ff7f0e;stroke:#ff7f0e;" x="428.015597" xlink:href="#m523d55a4b5" y="135.971571"/>
     <use style="fill:#ff7f0e;stroke:#ff7f0e;" x="431.710455" xlink:href="#m523d55a4b5" y="135.797041"/>
    </g>
   </g>
   <g id="patch_9">
    <path d="M 47.63 197.733333 
L 47.63 132.786667 
" style="fill:none;stroke:#000000;stroke-linecap:square;stroke-linejoin:miter;stroke-width:0.8;"/>
   </g>
   <g id="patch_10">
    <path d="M 450 197.733333 
L 450 132.786667 
" style="fill:none;stroke:#000000;stroke-linecap:square;stroke-linejoin:miter;stroke-width:0.8;"/>
   </g>
   <g id="patch_11">
    <path d="M 47.63 197.733333 
L 450 197.733333 
" style="fill:none;stroke:#000000;stroke-linecap:square;stroke-linejoin:miter;stroke-width:0.8;"/>
   </g>
   <g id="patch_12">
    <path d="M 47.63 132.786667 
L 450 132.786667 
" style="fill:none;stroke:#000000;stroke-linecap:square;stroke-linejoin:miter;stroke-width:0.8;"/>
   </g>
   <g id="text_13">
    <!-- Trigonometric functions -->
    <g transform="translate(178.085312 126.786667)scale(0.12 -0.12)">
     <defs>
      <path d="M -0.296875 72.90625 
L 61.375 72.90625 
L 61.375 64.59375 
L 35.5 64.59375 
L 35.5 0 
L 25.59375 0 
L 25.59375 64.59375 
L -0.296875 64.59375 
z
" id="DejaVuSans-84"/>
      <path d="M 30.609375 48.390625 
Q 23.390625 48.390625 19.1875 42.75 
Q 14.984375 37.109375 14.984375 27.296875 
Q 14.984375 17.484375 19.15625 11.84375 
Q 23.34375 6.203125 30.609375 6.203125 
Q 37.796875 6.203125 41.984375 11.859375 
Q 46.1875 17.53125 46.1875 27.296875 
Q 46.1875 37.015625 41.984375 42.703125 
Q 37.796875 48.390625 30.609375 48.390625 
z
M 30.609375 56 
Q 42.328125 56 49.015625 48.375 
Q 55.71875 40.765625 55.71875 27.296875 
Q 55.71875 13.875 49.015625 6.21875 
Q 42.328125 -1.421875 30.609375 -1.421875 
Q 18.84375 -1.421875 12.171875 6.21875 
Q 5.515625 13.875 5.515625 27.296875 
Q 5.515625 40.765625 12.171875 48.375 
Q 18.84375 56 30.609375 56 
z
" id="DejaVuSans-111"/>
      <path d="M 48.78125 52.59375 
L 48.78125 44.1875 
Q 44.96875 46.296875 41.140625 47.34375 
Q 37.3125 48.390625 33.40625 48.390625 
Q 24.65625 48.390625 19.8125 42.84375 
Q 14.984375 37.3125 14.984375 27.296875 
Q 14.984375 17.28125 19.8125 11.734375 
Q 24.65625 6.203125 33.40625 6.203125 
Q 37.3125 6.203125 41.140625 7.25 
Q 44.96875 8.296875 48.78125 10.40625 
L 48.78125 2.09375 
Q 45.015625 0.34375 40.984375 -0.53125 
Q 36.96875 -1.421875 32.421875 -1.421875 
Q 20.0625 -1.421875 12.78125 6.34375 
Q 5.515625 14.109375 5.515625 27.296875 
Q 5.515625 40.671875 12.859375 48.328125 
Q 20.21875 56 33.015625 56 
Q 37.15625 56 41.109375 55.140625 
Q 45.0625 54.296875 48.78125 52.59375 
z
" id="DejaVuSans-99"/>
      <path d="M 37.109375 75.984375 
L 37.109375 68.5 
L 28.515625 68.5 
Q 23.6875 68.5 21.796875 66.546875 
Q 19.921875 64.59375 19.921875 59.515625 
L 19.921875 54.6875 
L 34.71875 54.6875 
L 34.71875 47.703125 
L 19.921875 47.703125 
L 19.921875 0 
L 10.890625 0 
L 10.890625 47.703125 
L 2.296875 47.703125 
L 2.296875 54.6875 
L 10.890625 54.6875 
L 10.890625 58.5 
Q 10.890625 67.625 15.140625 71.796875 
Q 19.390625 75.984375 28.609375 75.984375 
z
" id="DejaVuSans-102"/>
      <path d="M 44.28125 53.078125 
L 44.28125 44.578125 
Q 40.484375 46.53125 36.375 47.5 
Q 32.28125 48.484375 27.875 48.484375 
Q 21.1875 48.484375 17.84375 46.4375 
Q 14.5 44.390625 14.5 40.28125 
Q 14.5 37.15625 16.890625 35.375 
Q 19.28125 33.59375 26.515625 31.984375 
L 29.59375 31.296875 
Q 39.15625 29.25 43.1875 25.515625 
Q 47.21875 21.78125 47.21875 15.09375 
Q 47.21875 7.46875 41.1875 3.015625 
Q 35.15625 -1.421875 24.609375 -1.421875 
Q 20.21875 -1.421875 15.453125 -0.5625 
Q 10.6875 0.296875 5.421875 2 
L 5.421875 11.28125 
Q 10.40625 8.6875 15.234375 7.390625 
Q 20.0625 6.109375 24.8125 6.109375 
Q 31.15625 6.109375 34.5625 8.28125 
Q 37.984375 10.453125 37.984375 14.40625 
Q 37.984375 18.0625 35.515625 20.015625 
Q 33.0625 21.96875 24.703125 23.78125 
L 21.578125 24.515625 
Q 13.234375 26.265625 9.515625 29.90625 
Q 5.8125 33.546875 5.8125 39.890625 
Q 5.8125 47.609375 11.28125 51.796875 
Q 16.75 56 26.8125 56 
Q 31.78125 56 36.171875 55.265625 
Q 40.578125 54.546875 44.28125 53.078125 
z
" id="DejaVuSans-115"/>
     </defs>
     <use xlink:href="#DejaVuSans-84"/>
     <use x="46.333984" xlink:href="#DejaVuSans-114"/>
     <use x="87.447266" xlink:href="#DejaVuSans-105"/>
     <use x="115.230469" xlink:href="#DejaVuSans-103"/>
     <use x="178.707031" xlink:href="#DejaVuSans-111"/>
     <use x="239.888672" xlink:href="#DejaVuSans-110"/>
     <use x="303.267578" xlink:href="#DejaVuSans-111"/>
     <use x="364.449219" xlink:href="#DejaVuSans-109"/>
     <use x="461.861328" xlink:href="#DejaVuSans-101"/>
     <use x="523.384766" xlink:href="#DejaVuSans-116"/>
     <use x="562.59375" xlink:href="#DejaVuSans-114"/>
     <use x="603.707031" xlink:href="#DejaVuSans-105"/>
     <use x="631.490234" xlink:href="#DejaVuSans-99"/>
     <use x="686.470703" xlink:href="#DejaVuSans-32"/>
     <use x="718.257812" xlink:href="#DejaVuSans-102"/>
     <use x="753.462891" xlink:href="#DejaVuSans-117"/>
     <use x="816.841797" xlink:href="#DejaVuSans-110"/>
     <use x="880.220703" xlink:href="#DejaVuSans-99"/>
     <use x="935.201172" xlink:href="#DejaVuSans-116"/>
     <use x="974.410156" xlink:href="#DejaVuSans-105"/>
     <use x="1002.193359" xlink:href="#DejaVuSans-111"/>
     <use x="1063.375" xlink:href="#DejaVuSans-110"/>
     <use x="1126.753906" xlink:href="#DejaVuSans-115"/>
    </g>
   </g>
   <g id="legend_2">
    <g id="patch_13">
     <path d="M 54.63 170.142917 
L 103.456563 170.142917 
Q 105.456563 170.142917 105.456563 168.142917 
L 105.456563 139.786667 
Q 105.456563 137.786667 103.456563 137.786667 
L 54.63 137.786667 
Q 52.63 137.786667 52.63 139.786667 
L 52.63 168.142917 
Q 52.63 170.142917 54.63 170.142917 
z
" style="fill:#ffffff;opacity:0.8;stroke:#cccccc;stroke-linejoin:miter;"/>
    </g>
    <g id="line2d_42">
     <path d="M 56.63 145.885104 
L 76.63 145.885104 
" style="fill:none;stroke:#1f77b4;stroke-linecap:square;stroke-width:1.5;"/>
    </g>
    <g id="line2d_43">
     <g>
      <use style="fill:#1f77b4;stroke:#1f77b4;" x="66.63" xlink:href="#m3f023cc95f" y="145.885104"/>
     </g>
    </g>
    <g id="text_14">
     <!-- sin -->
     <g transform="translate(84.63 149.385104)scale(0.1 -0.1)">
      <use xlink:href="#DejaVuSans-115"/>
      <use x="52.099609" xlink:href="#DejaVuSans-105"/>
      <use x="79.882812" xlink:href="#DejaVuSans-110"/>
     </g>
    </g>
    <g id="line2d_44">
     <path d="M 56.63 160.563229 
L 76.63 160.563229 
" style="fill:none;stroke:#ff7f0e;stroke-linecap:square;stroke-width:1.5;"/>
    </g>
    <g id="line2d_45">
     <g>
      <use style="fill:#ff7f0e;stroke:#ff7f0e;" x="66.63" xlink:href="#m523d55a4b5" y="160.563229"/>
     </g>
    </g>
    <g id="text_15">
     <!-- cos -->
     <g transform="translate(84.63 164.063229)scale(0.1 -0.1)">
      <use xlink:href="#DejaVuSans-99"/>
      <use x="54.980469" xlink:href="#DejaVuSans-111"/>
      <use x="116.162109" xlink:href="#DejaVuSans-115"/>
     </g>
    </g>
   </g>
  </g>
  <g id="axes_3">
   <g id="patch_14">
    <path d="M 47.63 303.64 
L 450 303.64 
L 450 238.693333 
L 47.63 238.693333 
z
" style="fill:#ffffff;"/>
   </g>
   <g id="matplotlib.axis_5">
    <g id="xtick_13">
     <g id="line2d_46">
      <path clip-path="url(#p2a4f14c0a9)" d="M 65.919545 303.64 
L 65.919545 238.693333 
" style="fill:none;stroke:#b0b0b0;stroke-linecap:square;stroke-width:0.8;"/>
     </g>
     <g id="line2d_47">
      <g>
       <use style="stroke:#000000;stroke-width:0.8;" x="65.919545" xlink:href="#mcacffd8f90" y="303.64"/>
      </g>
     </g>
     <g id="text_16">
      <!-- 0 -->
      <g transform="translate(62.738295 318.238437)scale(0.1 -0.1)">
       <use xlink:href="#DejaVuSans-48"/>
      </g>
     </g>
    </g>
    <g id="xtick_14">
     <g id="line2d_48">
      <path clip-path="url(#p2a4f14c0a9)" d="M 139.816699 303.64 
L 139.816699 238.693333 
" style="fill:none;stroke:#b0b0b0;stroke-linecap:square;stroke-width:0.8;"/>
     </g>
     <g id="line2d_49">
      <g>
       <use style="stroke:#000000;stroke-width:0.8;" x="139.816699" xlink:href="#mcacffd8f90" y="303.64"/>
      </g>
     </g>
     <g id="text_17">
      <!-- 20 -->
      <g transform="translate(133.454199 318.238437)scale(0.1 -0.1)">
       <use xlink:href="#DejaVuSans-50"/>
       <use x="63.623047" xlink:href="#DejaVuSans-48"/>
      </g>
     </g>
    </g>
    <g id="xtick_15">
     <g id="line2d_50">
      <path clip-path="url(#p2a4f14c0a9)" d="M 213.713852 303.64 
L 213.713852 238.693333 
" style="fill:none;stroke:#b0b0b0;stroke-linecap:square;stroke-width:0.8;"/>
     </g>
     <g id="line2d_51">
      <g>
       <use style="stroke:#000000;stroke-width:0.8;" x="213.713852" xlink:href="#mcacffd8f90" y="303.64"/>
      </g>
     </g>
     <g id="text_18">
      <!-- 40 -->
      <g transform="translate(207.351352 318.238437)scale(0.1 -0.1)">
       <defs>
        <path d="M 37.796875 64.3125 
L 12.890625 25.390625 
L 37.796875 25.390625 
z
M 35.203125 72.90625 
L 47.609375 72.90625 
L 47.609375 25.390625 
L 58.015625 25.390625 
L 58.015625 17.1875 
L 47.609375 17.1875 
L 47.609375 0 
L 37.796875 0 
L 37.796875 17.1875 
L 4.890625 17.1875 
L 4.890625 26.703125 
z
" id="DejaVuSans-52"/>
       </defs>
       <use xlink:href="#DejaVuSans-52"/>
       <use x="63.623047" xlink:href="#DejaVuSans-48"/>
      </g>
     </g>
    </g>
    <g id="xtick_16">
     <g id="line2d_52">
      <path clip-path="url(#p2a4f14c0a9)" d="M 287.611006 303.64 
L 287.611006 238.693333 
" style="fill:none;stroke:#b0b0b0;stroke-linecap:square;stroke-width:0.8;"/>
     </g>
     <g id="line2d_53">
      <g>
       <use style="stroke:#000000;stroke-width:0.8;" x="287.611006" xlink:href="#mcacffd8f90" y="303.64"/>
      </g>
     </g>
     <g id="text_19">
      <!-- 60 -->
      <g transform="translate(281.248506 318.238437)scale(0.1 -0.1)">
       <defs>
        <path d="M 33.015625 40.375 
Q 26.375 40.375 22.484375 35.828125 
Q 18.609375 31.296875 18.609375 23.390625 
Q 18.609375 15.53125 22.484375 10.953125 
Q 26.375 6.390625 33.015625 6.390625 
Q 39.65625 6.390625 43.53125 10.953125 
Q 47.40625 15.53125 47.40625 23.390625 
Q 47.40625 31.296875 43.53125 35.828125 
Q 39.65625 40.375 33.015625 40.375 
z
M 52.59375 71.296875 
L 52.59375 62.3125 
Q 48.875 64.0625 45.09375 64.984375 
Q 41.3125 65.921875 37.59375 65.921875 
Q 27.828125 65.921875 22.671875 59.328125 
Q 17.53125 52.734375 16.796875 39.40625 
Q 19.671875 43.65625 24.015625 45.921875 
Q 28.375 48.1875 33.59375 48.1875 
Q 44.578125 48.1875 50.953125 41.515625 
Q 57.328125 34.859375 57.328125 23.390625 
Q 57.328125 12.15625 50.6875 5.359375 
Q 44.046875 -1.421875 33.015625 -1.421875 
Q 20.359375 -1.421875 13.671875 8.265625 
Q 6.984375 17.96875 6.984375 36.375 
Q 6.984375 53.65625 15.1875 63.9375 
Q 23.390625 74.21875 37.203125 74.21875 
Q 40.921875 74.21875 44.703125 73.484375 
Q 48.484375 72.75 52.59375 71.296875 
z
" id="DejaVuSans-54"/>
       </defs>
       <use xlink:href="#DejaVuSans-54"/>
       <use x="63.623047" xlink:href="#DejaVuSans-48"/>
      </g>
     </g>
    </g>
    <g id="xtick_17">
     <g id="line2d_54">
      <path clip-path="url(#p2a4f14c0a9)" d="M 361.508159 303.64 
L 361.508159 238.693333 
" style="fill:none;stroke:#b0b0b0;stroke-linecap:square;stroke-width:0.8;"/>
     </g>
     <g id="line2d_55">
      <g>
       <use style="stroke:#000000;stroke-width:0.8;" x="361.508159" xlink:href="#mcacffd8f90" y="303.64"/>
      </g>
     </g>
     <g id="text_20">
      <!-- 80 -->
      <g transform="translate(355.145659 318.238437)scale(0.1 -0.1)">
       <defs>
        <path d="M 31.78125 34.625 
Q 24.75 34.625 20.71875 30.859375 
Q 16.703125 27.09375 16.703125 20.515625 
Q 16.703125 13.921875 20.71875 10.15625 
Q 24.75 6.390625 31.78125 6.390625 
Q 38.8125 6.390625 42.859375 10.171875 
Q 46.921875 13.96875 46.921875 20.515625 
Q 46.921875 27.09375 42.890625 30.859375 
Q 38.875 34.625 31.78125 34.625 
z
M 21.921875 38.8125 
Q 15.578125 40.375 12.03125 44.71875 
Q 8.5 49.078125 8.5 55.328125 
Q 8.5 64.0625 14.71875 69.140625 
Q 20.953125 74.21875 31.78125 74.21875 
Q 42.671875 74.21875 48.875 69.140625 
Q 55.078125 64.0625 55.078125 55.328125 
Q 55.078125 49.078125 51.53125 44.71875 
Q 48 40.375 41.703125 38.8125 
Q 48.828125 37.15625 52.796875 32.3125 
Q 56.78125 27.484375 56.78125 20.515625 
Q 56.78125 9.90625 50.3125 4.234375 
Q 43.84375 -1.421875 31.78125 -1.421875 
Q 19.734375 -1.421875 13.25 4.234375 
Q 6.78125 9.90625 6.78125 20.515625 
Q 6.78125 27.484375 10.78125 32.3125 
Q 14.796875 37.15625 21.921875 38.8125 
z
M 18.3125 54.390625 
Q 18.3125 48.734375 21.84375 45.5625 
Q 25.390625 42.390625 31.78125 42.390625 
Q 38.140625 42.390625 41.71875 45.5625 
Q 45.3125 48.734375 45.3125 54.390625 
Q 45.3125 60.0625 41.71875 63.234375 
Q 38.140625 66.40625 31.78125 66.40625 
Q 25.390625 66.40625 21.84375 63.234375 
Q 18.3125 60.0625 18.3125 54.390625 
z
" id="DejaVuSans-56"/>
       </defs>
       <use xlink:href="#DejaVuSans-56"/>
       <use x="63.623047" xlink:href="#DejaVuSans-48"/>
      </g>
     </g>
    </g>
    <g id="xtick_18">
     <g id="line2d_56">
      <path clip-path="url(#p2a4f14c0a9)" d="M 435.405312 303.64 
L 435.405312 238.693333 
" style="fill:none;stroke:#b0b0b0;stroke-linecap:square;stroke-width:0.8;"/>
     </g>
     <g id="line2d_57">
      <g>
       <use style="stroke:#000000;stroke-width:0.8;" x="435.405312" xlink:href="#mcacffd8f90" y="303.64"/>
      </g>
     </g>
     <g id="text_21">
      <!-- 100 -->
      <g transform="translate(425.861562 318.238437)scale(0.1 -0.1)">
       <use xlink:href="#DejaVuSans-49"/>
       <use x="63.623047" xlink:href="#DejaVuSans-48"/>
       <use x="127.246094" xlink:href="#DejaVuSans-48"/>
      </g>
     </g>
    </g>
    <g id="text_22">
     <!-- X -->
     <g transform="translate(245.39 331.916562)scale(0.1 -0.1)">
      <defs>
       <path d="M 6.296875 72.90625 
L 16.890625 72.90625 
L 35.015625 45.796875 
L 53.21875 72.90625 
L 63.8125 72.90625 
L 40.375 37.890625 
L 65.375 0 
L 54.78125 0 
L 34.28125 31 
L 13.625 0 
L 2.984375 0 
L 29 38.921875 
z
" id="DejaVuSans-88"/>
      </defs>
      <use xlink:href="#DejaVuSans-88"/>
     </g>
    </g>
   </g>
   <g id="matplotlib.axis_6">
    <g id="ytick_7">
     <g id="line2d_58">
      <path clip-path="url(#p2a4f14c0a9)" d="M 47.63 286.93447 
L 450 286.93447 
" style="fill:none;stroke:#b0b0b0;stroke-linecap:square;stroke-width:0.8;"/>
     </g>
     <g id="line2d_59">
      <g>
       <use style="stroke:#000000;stroke-width:0.8;" x="47.63" xlink:href="#m9753063fd5" y="286.93447"/>
      </g>
     </g>
     <g id="text_23">
      <!-- 0 -->
      <g transform="translate(34.2675 290.733689)scale(0.1 -0.1)">
       <use xlink:href="#DejaVuSans-48"/>
      </g>
     </g>
    </g>
    <g id="ytick_8">
     <g id="line2d_60">
      <path clip-path="url(#p2a4f14c0a9)" d="M 47.63 245.337184 
L 450 245.337184 
" style="fill:none;stroke:#b0b0b0;stroke-linecap:square;stroke-width:0.8;"/>
     </g>
     <g id="line2d_61">
      <g>
       <use style="stroke:#000000;stroke-width:0.8;" x="47.63" xlink:href="#m9753063fd5" y="245.337184"/>
      </g>
     </g>
     <g id="text_24">
      <!-- 5 -->
      <g transform="translate(34.2675 249.136403)scale(0.1 -0.1)">
       <use xlink:href="#DejaVuSans-53"/>
      </g>
     </g>
    </g>
    <g id="text_25">
     <!-- Y -->
     <g transform="translate(28.187813 274.220573)rotate(-90)scale(0.1 -0.1)">
      <defs>
       <path d="M -0.203125 72.90625 
L 10.40625 72.90625 
L 30.609375 42.921875 
L 50.6875 72.90625 
L 61.28125 72.90625 
L 35.5 34.71875 
L 35.5 0 
L 25.59375 0 
L 25.59375 34.71875 
z
" id="DejaVuSans-89"/>
      </defs>
      <use xlink:href="#DejaVuSans-89"/>
     </g>
    </g>
    <g id="text_26">
     <!-- 1e15 -->
     <g transform="translate(47.63 235.693333)scale(0.1 -0.1)">
      <use xlink:href="#DejaVuSans-49"/>
      <use x="63.623047" xlink:href="#DejaVuSans-101"/>
      <use x="125.146484" xlink:href="#DejaVuSans-49"/>
      <use x="188.769531" xlink:href="#DejaVuSans-53"/>
     </g>
    </g>
   </g>
   <g id="line2d_62">
    <path clip-path="url(#p2a4f14c0a9)" d="M 65.919545 286.93447 
L 69.614403 286.93447 
L 73.309261 286.93447 
L 77.004118 286.93447 
L 80.698976 286.93447 
L 84.393834 286.93447 
L 88.088691 286.93447 
L 91.783549 286.93447 
L 95.478407 286.93447 
L 99.173264 286.93447 
L 102.868122 286.93447 
L 106.56298 286.93447 
L 110.257837 286.93447 
L 113.952695 286.93447 
L 117.647553 286.93447 
L 121.34241 286.93447 
L 125.037268 286.93447 
L 128.732126 286.93447 
L 132.426983 286.93447 
L 136.121841 286.93447 
L 139.816699 286.93447 
L 143.511556 286.93447 
L 147.206414 286.93447 
L 150.901272 286.93447 
L 154.596129 286.93447 
L 158.290987 300.687879 
L 161.985845 286.93447 
L 165.680702 286.93447 
L 169.37556 286.93447 
L 173.070418 286.93447 
L 176.765275 286.93447 
L 180.460133 286.93447 
L 184.154991 286.93447 
L 187.849848 286.93447 
L 191.544706 286.93447 
L 195.239564 286.93447 
L 198.934421 286.93447 
L 202.629279 286.93447 
L 206.324137 286.93447 
L 210.018994 286.93447 
L 213.713852 286.93447 
L 217.40871 286.93447 
L 221.103567 286.93447 
L 224.798425 286.93447 
L 228.493283 286.93447 
L 232.18814 286.93447 
L 235.882998 286.93447 
L 239.577856 286.93447 
L 243.272713 286.93447 
L 246.967571 286.93447 
L 250.662429 286.93447 
L 254.357287 286.93447 
L 258.052144 286.93447 
L 261.747002 286.93447 
L 265.44186 286.93447 
L 269.136717 286.93447 
L 272.831575 286.93447 
L 276.526433 286.93447 
L 280.22129 286.93447 
L 283.916148 286.93447 
L 287.611006 286.93447 
L 291.305863 286.93447 
L 295.000721 286.93447 
L 298.695579 286.93447 
L 302.390436 286.93447 
L 306.085294 286.93447 
L 309.780152 286.93447 
L 313.475009 286.93447 
L 317.169867 286.93447 
L 320.864725 286.93447 
L 324.559582 286.93447 
L 328.25444 286.93447 
L 331.949298 286.93447 
L 335.644155 286.93447 
L 339.339013 286.93447 
L 343.033871 241.645455 
L 346.728728 286.93447 
L 350.423586 286.93447 
L 354.118444 286.93447 
L 357.813301 286.93447 
L 361.508159 286.93447 
L 365.203017 286.93447 
L 368.897874 286.93447 
L 372.592732 286.93447 
L 376.28759 286.93447 
L 379.982447 286.93447 
L 383.677305 286.93447 
L 387.372163 286.93447 
L 391.06702 286.93447 
L 394.761878 286.93447 
L 398.456736 286.93447 
L 402.151593 286.93447 
L 405.846451 286.93447 
L 409.541309 286.93447 
L 413.236166 286.93447 
L 416.931024 286.93447 
L 420.625882 286.93447 
L 424.320739 286.93447 
L 428.015597 286.93447 
L 431.710455 286.93447 
" style="fill:none;stroke:#1f77b4;stroke-linecap:square;stroke-width:1.5;"/>
    <g clip-path="url(#p2a4f14c0a9)">
     <use style="fill:#1f77b4;stroke:#1f77b4;" x="65.919545" xlink:href="#m3f023cc95f" y="286.93447"/>
     <use style="fill:#1f77b4;stroke:#1f77b4;" x="69.614403" xlink:href="#m3f023cc95f" y="286.93447"/>
     <use style="fill:#1f77b4;stroke:#1f77b4;" x="73.309261" xlink:href="#m3f023cc95f" y="286.93447"/>
     <use style="fill:#1f77b4;stroke:#1f77b4;" x="77.004118" xlink:href="#m3f023cc95f" y="286.93447"/>
     <use style="fill:#1f77b4;stroke:#1f77b4;" x="80.698976" xlink:href="#m3f023cc95f" y="286.93447"/>
     <use style="fill:#1f77b4;stroke:#1f77b4;" x="84.393834" xlink:href="#m3f023cc95f" y="286.93447"/>
     <use style="fill:#1f77b4;stroke:#1f77b4;" x="88.088691" xlink:href="#m3f023cc95f" y="286.93447"/>
     <use style="fill:#1f77b4;stroke:#1f77b4;" x="91.783549" xlink:href="#m3f023cc95f" y="286.93447"/>
     <use style="fill:#1f77b4;stroke:#1f77b4;" x="95.478407" xlink:href="#m3f023cc95f" y="286.93447"/>
     <use style="fill:#1f77b4;stroke:#1f77b4;" x="99.173264" xlink:href="#m3f023cc95f" y="286.93447"/>
     <use style="fill:#1f77b4;stroke:#1f77b4;" x="102.868122" xlink:href="#m3f023cc95f" y="286.93447"/>
     <use style="fill:#1f77b4;stroke:#1f77b4;" x="106.56298" xlink:href="#m3f023cc95f" y="286.93447"/>
     <use style="fill:#1f77b4;stroke:#1f77b4;" x="110.257837" xlink:href="#m3f023cc95f" y="286.93447"/>
     <use style="fill:#1f77b4;stroke:#1f77b4;" x="113.952695" xlink:href="#m3f023cc95f" y="286.93447"/>
     <use style="fill:#1f77b4;stroke:#1f77b4;" x="117.647553" xlink:href="#m3f023cc95f" y="286.93447"/>
     <use style="fill:#1f77b4;stroke:#1f77b4;" x="121.34241" xlink:href="#m3f023cc95f" y="286.93447"/>
     <use style="fill:#1f77b4;stroke:#1f77b4;" x="125.037268" xlink:href="#m3f023cc95f" y="286.93447"/>
     <use style="fill:#1f77b4;stroke:#1f77b4;" x="128.732126" xlink:href="#m3f023cc95f" y="286.93447"/>
     <use style="fill:#1f77b4;stroke:#1f77b4;" x="132.426983" xlink:href="#m3f023cc95f" y="286.93447"/>
     <use style="fill:#1f77b4;stroke:#1f77b4;" x="136.121841" xlink:href="#m3f023cc95f" y="286.93447"/>
     <use style="fill:#1f77b4;stroke:#1f77b4;" x="139.816699" xlink:href="#m3f023cc95f" y="286.93447"/>
     <use style="fill:#1f77b4;stroke:#1f77b4;" x="143.511556" xlink:href="#m3f023cc95f" y="286.93447"/>
     <use style="fill:#1f77b4;stroke:#1f77b4;" x="147.206414" xlink:href="#m3f023cc95f" y="286.93447"/>
     <use style="fill:#1f77b4;stroke:#1f77b4;" x="150.901272" xlink:href="#m3f023cc95f" y="286.93447"/>
     <use style="fill:#1f77b4;stroke:#1f77b4;" x="154.596129" xlink:href="#m3f023cc95f" y="286.93447"/>
     <use style="fill:#1f77b4;stroke:#1f77b4;" x="158.290987" xlink:href="#m3f023cc95f" y="300.687879"/>
     <use style="fill:#1f77b4;stroke:#1f77b4;" x="161.985845" xlink:href="#m3f023cc95f" y="286.93447"/>
     <use style="fill:#1f77b4;stroke:#1f77b4;" x="165.680702" xlink:href="#m3f023cc95f" y="286.93447"/>
     <use style="fill:#1f77b4;stroke:#1f77b4;" x="169.37556" xlink:href="#m3f023cc95f" y="286.93447"/>
     <use style="fill:#1f77b4;stroke:#1f77b4;" x="173.070418" xlink:href="#m3f023cc95f" y="286.93447"/>
     <use style="fill:#1f77b4;stroke:#1f77b4;" x="176.765275" xlink:href="#m3f023cc95f" y="286.93447"/>
     <use style="fill:#1f77b4;stroke:#1f77b4;" x="180.460133" xlink:href="#m3f023cc95f" y="286.93447"/>
     <use style="fill:#1f77b4;stroke:#1f77b4;" x="184.154991" xlink:href="#m3f023cc95f" y="286.93447"/>
     <use style="fill:#1f77b4;stroke:#1f77b4;" x="187.849848" xlink:href="#m3f023cc95f" y="286.93447"/>
     <use style="fill:#1f77b4;stroke:#1f77b4;" x="191.544706" xlink:href="#m3f023cc95f" y="286.93447"/>
     <use style="fill:#1f77b4;stroke:#1f77b4;" x="195.239564" xlink:href="#m3f023cc95f" y="286.93447"/>
     <use style="fill:#1f77b4;stroke:#1f77b4;" x="198.934421" xlink:href="#m3f023cc95f" y="286.93447"/>
     <use style="fill:#1f77b4;stroke:#1f77b4;" x="202.629279" xlink:href="#m3f023cc95f" y="286.93447"/>
     <use style="fill:#1f77b4;stroke:#1f77b4;" x="206.324137" xlink:href="#m3f023cc95f" y="286.93447"/>
     <use style="fill:#1f77b4;stroke:#1f77b4;" x="210.018994" xlink:href="#m3f023cc95f" y="286.93447"/>
     <use style="fill:#1f77b4;stroke:#1f77b4;" x="213.713852" xlink:href="#m3f023cc95f" y="286.93447"/>
     <use style="fill:#1f77b4;stroke:#1f77b4;" x="217.40871" xlink:href="#m3f023cc95f" y="286.93447"/>
     <use style="fill:#1f77b4;stroke:#1f77b4;" x="221.103567" xlink:href="#m3f023cc95f" y="286.93447"/>
     <use style="fill:#1f77b4;stroke:#1f77b4;" x="224.798425" xlink:href="#m3f023cc95f" y="286.93447"/>
     <use style="fill:#1f77b4;stroke:#1f77b4;" x="228.493283" xlink:href="#m3f023cc95f" y="286.93447"/>
     <use style="fill:#1f77b4;stroke:#1f77b4;" x="232.18814" xlink:href="#m3f023cc95f" y="286.93447"/>
     <use style="fill:#1f77b4;stroke:#1f77b4;" x="235.882998" xlink:href="#m3f023cc95f" y="286.93447"/>
     <use style="fill:#1f77b4;stroke:#1f77b4;" x="239.577856" xlink:href="#m3f023cc95f" y="286.93447"/>
     <use style="fill:#1f77b4;stroke:#1f77b4;" x="243.272713" xlink:href="#m3f023cc95f" y="286.93447"/>
     <use style="fill:#1f77b4;stroke:#1f77b4;" x="246.967571" xlink:href="#m3f023cc95f" y="286.93447"/>
     <use style="fill:#1f77b4;stroke:#1f77b4;" x="250.662429" xlink:href="#m3f023cc95f" y="286.93447"/>
     <use style="fill:#1f77b4;stroke:#1f77b4;" x="254.357287" xlink:href="#m3f023cc95f" y="286.93447"/>
     <use style="fill:#1f77b4;stroke:#1f77b4;" x="258.052144" xlink:href="#m3f023cc95f" y="286.93447"/>
     <use style="fill:#1f77b4;stroke:#1f77b4;" x="261.747002" xlink:href="#m3f023cc95f" y="286.93447"/>
     <use style="fill:#1f77b4;stroke:#1f77b4;" x="265.44186" xlink:href="#m3f023cc95f" y="286.93447"/>
     <use style="fill:#1f77b4;stroke:#1f77b4;" x="269.136717" xlink:href="#m3f023cc95f" y="286.93447"/>
     <use style="fill:#1f77b4;stroke:#1f77b4;" x="272.831575" xlink:href="#m3f023cc95f" y="286.93447"/>
     <use style="fill:#1f77b4;stroke:#1f77b4;" x="276.526433" xlink:href="#m3f023cc95f" y="286.93447"/>
     <use style="fill:#1f77b4;stroke:#1f77b4;" x="280.22129" xlink:href="#m3f023cc95f" y="286.93447"/>
     <use style="fill:#1f77b4;stroke:#1f77b4;" x="283.916148" xlink:href="#m3f023cc95f" y="286.93447"/>
     <use style="fill:#1f77b4;stroke:#1f77b4;" x="287.611006" xlink:href="#m3f023cc95f" y="286.93447"/>
     <use style="fill:#1f77b4;stroke:#1f77b4;" x="291.305863" xlink:href="#m3f023cc95f" y="286.93447"/>
     <use style="fill:#1f77b4;stroke:#1f77b4;" x="295.000721" xlink:href="#m3f023cc95f" y="286.93447"/>
     <use style="fill:#1f77b4;stroke:#1f77b4;" x="298.695579" xlink:href="#m3f023cc95f" y="286.93447"/>
     <use style="fill:#1f77b4;stroke:#1f77b4;" x="302.390436" xlink:href="#m3f023cc95f" y="286.93447"/>
     <use style="fill:#1f77b4;stroke:#1f77b4;" x="306.085294" xlink:href="#m3f023cc95f" y="286.93447"/>
     <use style="fill:#1f77b4;stroke:#1f77b4;" x="309.780152" xlink:href="#m3f023cc95f" y="286.93447"/>
     <use style="fill:#1f77b4;stroke:#1f77b4;" x="313.475009" xlink:href="#m3f023cc95f" y="286.93447"/>
     <use style="fill:#1f77b4;stroke:#1f77b4;" x="317.169867" xlink:href="#m3f023cc95f" y="286.93447"/>
     <use style="fill:#1f77b4;stroke:#1f77b4;" x="320.864725" xlink:href="#m3f023cc95f" y="286.93447"/>
     <use style="fill:#1f77b4;stroke:#1f77b4;" x="324.559582" xlink:href="#m3f023cc95f" y="286.93447"/>
     <use style="fill:#1f77b4;stroke:#1f77b4;" x="328.25444" xlink:href="#m3f023cc95f" y="286.93447"/>
     <use style="fill:#1f77b4;stroke:#1f77b4;" x="331.949298" xlink:href="#m3f023cc95f" y="286.93447"/>
     <use style="fill:#1f77b4;stroke:#1f77b4;" x="335.644155" xlink:href="#m3f023cc95f" y="286.93447"/>
     <use style="fill:#1f77b4;stroke:#1f77b4;" x="339.339013" xlink:href="#m3f023cc95f" y="286.93447"/>
     <use style="fill:#1f77b4;stroke:#1f77b4;" x="343.033871" xlink:href="#m3f023cc95f" y="241.645455"/>
     <use style="fill:#1f77b4;stroke:#1f77b4;" x="346.728728" xlink:href="#m3f023cc95f" y="286.93447"/>
     <use style="fill:#1f77b4;stroke:#1f77b4;" x="350.423586" xlink:href="#m3f023cc95f" y="286.93447"/>
     <use style="fill:#1f77b4;stroke:#1f77b4;" x="354.118444" xlink:href="#m3f023cc95f" y="286.93447"/>
     <use style="fill:#1f77b4;stroke:#1f77b4;" x="357.813301" xlink:href="#m3f023cc95f" y="286.93447"/>
     <use style="fill:#1f77b4;stroke:#1f77b4;" x="361.508159" xlink:href="#m3f023cc95f" y="286.93447"/>
     <use style="fill:#1f77b4;stroke:#1f77b4;" x="365.203017" xlink:href="#m3f023cc95f" y="286.93447"/>
     <use style="fill:#1f77b4;stroke:#1f77b4;" x="368.897874" xlink:href="#m3f023cc95f" y="286.93447"/>
     <use style="fill:#1f77b4;stroke:#1f77b4;" x="372.592732" xlink:href="#m3f023cc95f" y="286.93447"/>
     <use style="fill:#1f77b4;stroke:#1f77b4;" x="376.28759" xlink:href="#m3f023cc95f" y="286.93447"/>
     <use style="fill:#1f77b4;stroke:#1f77b4;" x="379.982447" xlink:href="#m3f023cc95f" y="286.93447"/>
     <use style="fill:#1f77b4;stroke:#1f77b4;" x="383.677305" xlink:href="#m3f023cc95f" y="286.93447"/>
     <use style="fill:#1f77b4;stroke:#1f77b4;" x="387.372163" xlink:href="#m3f023cc95f" y="286.93447"/>
     <use style="fill:#1f77b4;stroke:#1f77b4;" x="391.06702" xlink:href="#m3f023cc95f" y="286.93447"/>
     <use style="fill:#1f77b4;stroke:#1f77b4;" x="394.761878" xlink:href="#m3f023cc95f" y="286.93447"/>
     <use style="fill:#1f77b4;stroke:#1f77b4;" x="398.456736" xlink:href="#m3f023cc95f" y="286.93447"/>
     <use style="fill:#1f77b4;stroke:#1f77b4;" x="402.151593" xlink:href="#m3f023cc95f" y="286.93447"/>
     <use style="fill:#1f77b4;stroke:#1f77b4;" x="405.846451" xlink:href="#m3f023cc95f" y="286.93447"/>
     <use style="fill:#1f77b4;stroke:#1f77b4;" x="409.541309" xlink:href="#m3f023cc95f" y="286.93447"/>
     <use style="fill:#1f77b4;stroke:#1f77b4;" x="413.236166" xlink:href="#m3f023cc95f" y="286.93447"/>
     <use style="fill:#1f77b4;stroke:#1f77b4;" x="416.931024" xlink:href="#m3f023cc95f" y="286.93447"/>
     <use style="fill:#1f77b4;stroke:#1f77b4;" x="420.625882" xlink:href="#m3f023cc95f" y="286.93447"/>
     <use style="fill:#1f77b4;stroke:#1f77b4;" x="424.320739" xlink:href="#m3f023cc95f" y="286.93447"/>
     <use style="fill:#1f77b4;stroke:#1f77b4;" x="428.015597" xlink:href="#m3f023cc95f" y="286.93447"/>
     <use style="fill:#1f77b4;stroke:#1f77b4;" x="431.710455" xlink:href="#m3f023cc95f" y="286.93447"/>
    </g>
   </g>
   <g id="patch_15">
    <path d="M 47.63 303.64 
L 47.63 238.693333 
" style="fill:none;stroke:#000000;stroke-linecap:square;stroke-linejoin:miter;stroke-width:0.8;"/>
   </g>
   <g id="patch_16">
    <path d="M 450 303.64 
L 450 238.693333 
" style="fill:none;stroke:#000000;stroke-linecap:square;stroke-linejoin:miter;stroke-width:0.8;"/>
   </g>
   <g id="patch_17">
    <path d="M 47.63 303.64 
L 450 303.64 
" style="fill:none;stroke:#000000;stroke-linecap:square;stroke-linejoin:miter;stroke-width:0.8;"/>
   </g>
   <g id="patch_18">
    <path d="M 47.63 238.693333 
L 450 238.693333 
" style="fill:none;stroke:#000000;stroke-linecap:square;stroke-linejoin:miter;stroke-width:0.8;"/>
   </g>
   <g id="legend_3">
    <g id="patch_19">
     <path d="M 54.63 261.371458 
L 103.015938 261.371458 
Q 105.015938 261.371458 105.015938 259.371458 
L 105.015938 245.693333 
Q 105.015938 243.693333 103.015938 243.693333 
L 54.63 243.693333 
Q 52.63 243.693333 52.63 245.693333 
L 52.63 259.371458 
Q 52.63 261.371458 54.63 261.371458 
z
" style="fill:#ffffff;opacity:0.8;stroke:#cccccc;stroke-linejoin:miter;"/>
    </g>
    <g id="line2d_63">
     <path d="M 56.63 251.791771 
L 76.63 251.791771 
" style="fill:none;stroke:#1f77b4;stroke-linecap:square;stroke-width:1.5;"/>
    </g>
    <g id="line2d_64">
     <g>
      <use style="fill:#1f77b4;stroke:#1f77b4;" x="66.63" xlink:href="#m3f023cc95f" y="251.791771"/>
     </g>
    </g>
    <g id="text_27">
     <!-- tan -->
     <g transform="translate(84.63 255.291771)scale(0.1 -0.1)">
      <use xlink:href="#DejaVuSans-116"/>
      <use x="39.208984" xlink:href="#DejaVuSans-97"/>
      <use x="100.488281" xlink:href="#DejaVuSans-110"/>
     </g>
    </g>
   </g>
  </g>
 </g>
 <defs>
  <clipPath id="pf783bd5d2f">
   <rect height="64.946667" width="402.37" x="47.63" y="26.88"/>
  </clipPath>
  <clipPath id="p3988e6cf74">
   <rect height="64.946667" width="402.37" x="47.63" y="132.786667"/>
  </clipPath>
  <clipPath id="p2a4f14c0a9">
   <rect height="64.946667" width="402.37" x="47.63" y="238.693333"/>
  </clipPath>
 </defs>
</svg>
